<?xml version="1.0" encoding="UTF-8" standalone="no"?>
<!DOCTYPE svg PUBLIC "-//W3C//DTD SVG 1.1//EN"
 "http://www.w3.org/Graphics/SVG/1.1/DTD/svg11.dtd">
<!-- Generated by graphviz version 14.0.4 (0)
 -->
<!-- Pages: 1 -->
<svg width="1953pt" height="3280pt"
 viewBox="0.00 0.00 1953.00 3280.00" xmlns="http://www.w3.org/2000/svg" xmlns:xlink="http://www.w3.org/1999/xlink">
<g id="graph0" class="graph" transform="scale(4.16667 4.16667) rotate(0) translate(4 783.25)">
<polygon fill="white" stroke="none" points="-4,4 -4,-783.25 464.75,-783.25 464.75,4 -4,4"/>
<!-- start -->
<g id="node1" class="node">
<title>start</title>
</g>
<!-- 8 -->
<g id="node2" class="node">
<title>8</title>
<ellipse fill="none" stroke="black" cx="158" cy="-684.25" rx="18" ry="18"/>
<ellipse fill="none" stroke="black" cx="158" cy="-684.25" rx="22" ry="22"/>
<text xml:space="preserve" text-anchor="middle" x="158" y="-678.83" font-family="Times,serif" font-size="14.00">8</text>
</g>
<!-- start&#45;&gt;8 -->
<g id="edge1" class="edge">
<title>start&#45;&gt;8</title>
<path fill="none" stroke="black" d="M158,-743.61C158,-736.04 158,-726.82 158,-717.96"/>
<polygon fill="black" stroke="black" points="161.5,-718.21 158,-708.21 154.5,-718.21 161.5,-718.21"/>
</g>
<!-- 6 -->
<g id="node3" class="node">
<title>6</title>
<ellipse fill="none" stroke="black" cx="192" cy="-18" rx="18" ry="18"/>
<text xml:space="preserve" text-anchor="middle" x="192" y="-12.57" font-family="Times,serif" font-size="14.00">6</text>
</g>
<!-- 8&#45;&gt;6 -->
<g id="edge2" class="edge">
<title>8&#45;&gt;6</title>
<path fill="none" stroke="black" d="M136.03,-680.52C92.62,-673.76 0,-652.02 0,-589.5 0,-589.5 0,-589.5 0,-108.75 0,-37.94 108.5,-22.87 162.37,-19.76"/>
<polygon fill="black" stroke="black" points="162.25,-23.26 172.08,-19.3 161.93,-16.27 162.25,-23.26"/>
<text xml:space="preserve" text-anchor="middle" x="3.38" y="-343.7" font-family="Times,serif" font-size="14.00">g</text>
</g>
<!-- 7 -->
<g id="node4" class="node">
<title>7</title>
<ellipse fill="none" stroke="black" cx="239" cy="-109.75" rx="18" ry="18"/>
<ellipse fill="none" stroke="black" cx="239" cy="-109.75" rx="22" ry="22"/>
<text xml:space="preserve" text-anchor="middle" x="239" y="-104.33" font-family="Times,serif" font-size="14.00">7</text>
</g>
<!-- 8&#45;&gt;7 -->
<g id="edge6" class="edge">
<title>8&#45;&gt;7</title>
<path fill="none" stroke="black" d="M180.25,-681.06C249.09,-673.69 454,-646.91 454,-589.5 454,-589.5 454,-589.5 454,-204.5 454,-126.24 332.83,-112.65 272.42,-110.73"/>
<polygon fill="black" stroke="black" points="272.79,-107.24 262.71,-110.52 272.63,-114.24 272.79,-107.24"/>
<text xml:space="preserve" text-anchor="middle" x="457.38" y="-391.57" font-family="Times,serif" font-size="14.00">h</text>
</g>
<!-- 9 -->
<g id="node5" class="node">
<title>9</title>
<ellipse fill="none" stroke="black" cx="158" cy="-588.5" rx="18" ry="18"/>
<ellipse fill="none" stroke="black" cx="158" cy="-588.5" rx="22" ry="22"/>
<text xml:space="preserve" text-anchor="middle" x="158" y="-583.08" font-family="Times,serif" font-size="14.00">9</text>
</g>
<!-- 8&#45;&gt;9 -->
<g id="edge10" class="edge">
<title>8&#45;&gt;9</title>
<path fill="none" stroke="black" d="M158,-661.98C158,-650.23 158,-635.39 158,-622.2"/>
<polygon fill="black" stroke="black" points="161.5,-622.2 158,-612.2 154.5,-622.2 161.5,-622.2"/>
<text xml:space="preserve" text-anchor="middle" x="161.75" y="-630.95" font-family="Times,serif" font-size="14.00">k</text>
</g>
<!-- 6&#45;&gt;6 -->
<g id="edge3" class="edge">
<title>6&#45;&gt;6</title>
<path fill="none" stroke="black" d="M210.15,-20.65C219.54,-21.05 228,-20.17 228,-18 228,-16.81 225.47,-16.01 221.64,-15.59"/>
<polygon fill="black" stroke="black" points="221.74,-12.1 211.67,-15.39 221.59,-19.09 221.74,-12.1"/>
<text xml:space="preserve" text-anchor="middle" x="231.38" y="-12.57" font-family="Times,serif" font-size="14.00">g</text>
</g>
<!-- 6&#45;&gt;6 -->
<g id="edge4" class="edge">
<title>6&#45;&gt;6</title>
<path fill="none" stroke="black" d="M209.7,-22.36C227,-24.77 246,-23.31 246,-18 246,-13.85 234.4,-12.05 221.08,-12.62"/>
<polygon fill="black" stroke="black" points="220.85,-9.12 211.21,-13.51 221.48,-16.09 220.85,-9.12"/>
<text xml:space="preserve" text-anchor="middle" x="249.38" y="-12.57" font-family="Times,serif" font-size="14.00">h</text>
</g>
<!-- 6&#45;&gt;6 -->
<g id="edge5" class="edge">
<title>6&#45;&gt;6</title>
<path fill="none" stroke="black" d="M209.35,-23.4C233.82,-28.5 264,-26.7 264,-18 264,-10.59 242.11,-8.19 220.51,-10.78"/>
<polygon fill="black" stroke="black" points="220.16,-7.3 210.85,-12.35 221.28,-14.2 220.16,-7.3"/>
<text xml:space="preserve" text-anchor="middle" x="267.75" y="-12.57" font-family="Times,serif" font-size="14.00">k</text>
</g>
<!-- 7&#45;&gt;6 -->
<g id="edge7" class="edge">
<title>7&#45;&gt;6</title>
<path fill="none" stroke="black" d="M226.16,-91.8C221.44,-85.13 216.27,-77.28 212.25,-69.75 208.24,-62.24 204.56,-53.76 201.46,-45.92"/>
<polygon fill="black" stroke="black" points="204.83,-44.95 198.03,-36.83 198.28,-47.42 204.83,-44.95"/>
<text xml:space="preserve" text-anchor="middle" x="215.62" y="-56.45" font-family="Times,serif" font-size="14.00">g</text>
</g>
<!-- 7&#45;&gt;6 -->
<g id="edge9" class="edge">
<title>7&#45;&gt;6</title>
<path fill="none" stroke="black" d="M232.16,-88.46C228.28,-77.91 223,-64.96 217,-54 214.8,-49.99 212.23,-45.89 209.58,-41.98"/>
<polygon fill="black" stroke="black" points="212.56,-40.14 203.9,-34.03 206.86,-44.2 212.56,-40.14"/>
<text xml:space="preserve" text-anchor="middle" x="227.88" y="-56.45" font-family="Times,serif" font-size="14.00">k</text>
</g>
<!-- 7&#45;&gt;7 -->
<g id="edge8" class="edge">
<title>7&#45;&gt;7</title>
<path fill="none" stroke="black" d="M259.58,-118.46C269.84,-119.67 279,-116.76 279,-109.75 279,-105.59 275.77,-102.87 271,-101.6"/>
<polygon fill="black" stroke="black" points="271.25,-98.11 261.09,-101.11 270.91,-105.1 271.25,-98.11"/>
<text xml:space="preserve" text-anchor="middle" x="282.38" y="-104.33" font-family="Times,serif" font-size="14.00">h</text>
</g>
<!-- 9&#45;&gt;6 -->
<g id="edge11" class="edge">
<title>9&#45;&gt;6</title>
<path fill="none" stroke="black" d="M179.75,-584.15C240.57,-574.17 408,-542.31 408,-493.75 408,-493.75 408,-493.75 408,-108.75 408,-28.97 280.78,-18.78 221.61,-18.36"/>
<polygon fill="black" stroke="black" points="221.92,-14.86 211.93,-18.39 221.94,-21.86 221.92,-14.86"/>
<text xml:space="preserve" text-anchor="middle" x="411.38" y="-295.82" font-family="Times,serif" font-size="14.00">g</text>
</g>
<!-- 4 -->
<g id="node6" class="node">
<title>4</title>
<ellipse fill="none" stroke="black" cx="50" cy="-109.75" rx="18" ry="18"/>
<ellipse fill="none" stroke="black" cx="50" cy="-109.75" rx="22" ry="22"/>
<text xml:space="preserve" text-anchor="middle" x="50" y="-104.33" font-family="Times,serif" font-size="14.00">4</text>
</g>
<!-- 9&#45;&gt;4 -->
<g id="edge12" class="edge">
<title>9&#45;&gt;4</title>
<path fill="none" stroke="black" d="M137.26,-579.89C106.66,-567.16 53,-538.47 53,-493.75 53,-493.75 53,-493.75 53,-204.5 53,-184.16 52.29,-161.35 51.55,-143.32"/>
<polygon fill="black" stroke="black" points="55.06,-143.32 51.13,-133.48 48.06,-143.62 55.06,-143.32"/>
<text xml:space="preserve" text-anchor="middle" x="56.38" y="-343.7" font-family="Times,serif" font-size="14.00">h</text>
</g>
<!-- 3 -->
<g id="node7" class="node">
<title>3</title>
<ellipse fill="none" stroke="black" cx="158" cy="-492.75" rx="18" ry="18"/>
<ellipse fill="none" stroke="black" cx="158" cy="-492.75" rx="22" ry="22"/>
<text xml:space="preserve" text-anchor="middle" x="158" y="-487.32" font-family="Times,serif" font-size="14.00">3</text>
</g>
<!-- 9&#45;&gt;3 -->
<g id="edge16" class="edge">
<title>9&#45;&gt;3</title>
<path fill="none" stroke="black" d="M158,-566.23C158,-554.48 158,-539.64 158,-526.45"/>
<polygon fill="black" stroke="black" points="161.5,-526.45 158,-516.45 154.5,-526.45 161.5,-526.45"/>
<text xml:space="preserve" text-anchor="middle" x="161.75" y="-535.2" font-family="Times,serif" font-size="14.00">k</text>
</g>
<!-- 4&#45;&gt;6 -->
<g id="edge13" class="edge">
<title>4&#45;&gt;6</title>
<path fill="none" stroke="black" d="M64.79,-93.37C76.77,-81.51 94.53,-65.29 112.25,-54 128.56,-43.6 148.49,-34.85 164.34,-28.71"/>
<polygon fill="black" stroke="black" points="165.5,-32.01 173.64,-25.23 163.05,-25.45 165.5,-32.01"/>
<text xml:space="preserve" text-anchor="middle" x="115.62" y="-56.45" font-family="Times,serif" font-size="14.00">g</text>
</g>
<!-- 4&#45;&gt;6 -->
<g id="edge15" class="edge">
<title>4&#45;&gt;6</title>
<path fill="none" stroke="black" d="M56.92,-88.51C61.84,-76.91 69.53,-62.93 80.5,-54 104.05,-34.82 138.19,-26.11 162.48,-22.17"/>
<polygon fill="black" stroke="black" points="162.94,-25.64 172.35,-20.77 161.95,-18.71 162.94,-25.64"/>
<text xml:space="preserve" text-anchor="middle" x="84.25" y="-56.45" font-family="Times,serif" font-size="14.00">k</text>
</g>
<!-- 4&#45;&gt;4 -->
<g id="edge14" class="edge">
<title>4&#45;&gt;4</title>
<path fill="none" stroke="black" d="M70.58,-118.46C80.84,-119.67 90,-116.76 90,-109.75 90,-105.59 86.77,-102.87 82,-101.6"/>
<polygon fill="black" stroke="black" points="82.25,-98.11 72.09,-101.11 81.91,-105.1 82.25,-98.11"/>
<text xml:space="preserve" text-anchor="middle" x="93.38" y="-104.33" font-family="Times,serif" font-size="14.00">h</text>
</g>
<!-- 2 -->
<g id="node8" class="node">
<title>2</title>
<ellipse fill="none" stroke="black" cx="239" cy="-397" rx="18" ry="18"/>
<ellipse fill="none" stroke="black" cx="239" cy="-397" rx="22" ry="22"/>
<text xml:space="preserve" text-anchor="middle" x="239" y="-391.57" font-family="Times,serif" font-size="14.00">2</text>
</g>
<!-- 3&#45;&gt;2 -->
<g id="edge17" class="edge">
<title>3&#45;&gt;2</title>
<path fill="none" stroke="black" d="M172.11,-475.42C184.65,-460.9 203.18,-439.46 217.56,-422.82"/>
<polygon fill="black" stroke="black" points="220.17,-425.14 224.06,-415.29 214.88,-420.57 220.17,-425.14"/>
<text xml:space="preserve" text-anchor="middle" x="206.72" y="-439.45" font-family="Times,serif" font-size="14.00">g</text>
</g>
<!-- 1 -->
<g id="node10" class="node">
<title>1</title>
<ellipse fill="none" stroke="black" cx="167" cy="-205.5" rx="18" ry="18"/>
<ellipse fill="none" stroke="black" cx="167" cy="-205.5" rx="22" ry="22"/>
<text xml:space="preserve" text-anchor="middle" x="167" y="-200.07" font-family="Times,serif" font-size="14.00">1</text>
</g>
<!-- 3&#45;&gt;1 -->
<g id="edge31" class="edge">
<title>3&#45;&gt;1</title>
<path fill="none" stroke="black" d="M158.68,-470.31C160.24,-420.73 164.12,-297.91 165.97,-239.02"/>
<polygon fill="black" stroke="black" points="169.46,-239.42 166.28,-229.31 162.47,-239.2 169.46,-239.42"/>
<text xml:space="preserve" text-anchor="middle" x="166.46" y="-343.7" font-family="Times,serif" font-size="14.00">k</text>
</g>
<!-- 0 -->
<g id="node11" class="node">
<title>0</title>
<ellipse fill="none" stroke="black" cx="105" cy="-205.5" rx="18" ry="18"/>
<ellipse fill="none" stroke="black" cx="105" cy="-205.5" rx="22" ry="22"/>
<text xml:space="preserve" text-anchor="middle" x="105" y="-200.07" font-family="Times,serif" font-size="14.00">0</text>
</g>
<!-- 3&#45;&gt;0 -->
<g id="edge27" class="edge">
<title>3&#45;&gt;0</title>
<path fill="none" stroke="black" d="M154.1,-470.77C144.93,-421.42 121.94,-297.69 110.99,-238.73"/>
<polygon fill="black" stroke="black" points="114.45,-238.19 109.18,-228.99 107.57,-239.47 114.45,-238.19"/>
<text xml:space="preserve" text-anchor="middle" x="136.1" y="-343.7" font-family="Times,serif" font-size="14.00">h</text>
</g>
<!-- 2&#45;&gt;6 -->
<g id="edge18" class="edge">
<title>2&#45;&gt;6</title>
<path fill="none" stroke="black" d="M258.2,-385.55C278.18,-373.48 308.43,-351.59 322,-323.25 355.3,-253.69 331.08,-226.63 325,-149.75 322.81,-122.05 328.52,-113.03 317,-87.75 308.68,-69.49 303.58,-65.31 287,-54 266.82,-40.24 240.56,-31.1 220.77,-25.63"/>
<polygon fill="black" stroke="black" points="221.69,-22.25 211.14,-23.13 219.94,-29.03 221.69,-22.25"/>
<text xml:space="preserve" text-anchor="middle" x="339.97" y="-200.07" font-family="Times,serif" font-size="14.00">g</text>
</g>
<!-- 2&#45;&gt;7 -->
<g id="edge19" class="edge">
<title>2&#45;&gt;7</title>
<path fill="none" stroke="black" d="M239,-374.56C239,-324.98 239,-202.16 239,-143.27"/>
<polygon fill="black" stroke="black" points="242.5,-143.56 239,-133.56 235.5,-143.56 242.5,-143.56"/>
<text xml:space="preserve" text-anchor="middle" x="242.38" y="-247.95" font-family="Times,serif" font-size="14.00">h</text>
</g>
<!-- 5 -->
<g id="node9" class="node">
<title>5</title>
<ellipse fill="none" stroke="black" cx="291" cy="-301.25" rx="18" ry="18"/>
<ellipse fill="none" stroke="black" cx="291" cy="-301.25" rx="22" ry="22"/>
<text xml:space="preserve" text-anchor="middle" x="291" y="-295.82" font-family="Times,serif" font-size="14.00">5</text>
</g>
<!-- 2&#45;&gt;5 -->
<g id="edge20" class="edge">
<title>2&#45;&gt;5</title>
<path fill="none" stroke="black" d="M249.27,-377.48C256.63,-364.21 266.68,-346.09 275.08,-330.96"/>
<polygon fill="black" stroke="black" points="278.05,-332.82 279.84,-322.38 271.92,-329.43 278.05,-332.82"/>
<text xml:space="preserve" text-anchor="middle" x="271.86" y="-343.7" font-family="Times,serif" font-size="14.00">k</text>
</g>
<!-- 5&#45;&gt;6 -->
<g id="edge21" class="edge">
<title>5&#45;&gt;6</title>
<path fill="none" stroke="black" d="M297.6,-279.96C309.25,-240.26 329.16,-150.66 295,-87.75 278.99,-58.26 244.21,-39.17 219.5,-28.76"/>
<polygon fill="black" stroke="black" points="220.95,-25.58 210.37,-25.15 218.38,-32.08 220.95,-25.58"/>
<text xml:space="preserve" text-anchor="middle" x="317.2" y="-152.2" font-family="Times,serif" font-size="14.00">g</text>
</g>
<!-- 5&#45;&gt;7 -->
<g id="edge22" class="edge">
<title>5&#45;&gt;7</title>
<path fill="none" stroke="black" d="M287.72,-279.42C282.78,-250.02 272.33,-194.9 257,-149.75 255.94,-146.64 254.72,-143.44 253.41,-140.28"/>
<polygon fill="black" stroke="black" points="256.66,-138.97 249.41,-131.25 250.26,-141.81 256.66,-138.97"/>
<text xml:space="preserve" text-anchor="middle" x="280.94" y="-200.07" font-family="Times,serif" font-size="14.00">h</text>
</g>
<!-- 5&#45;&gt;1 -->
<g id="edge23" class="edge">
<title>5&#45;&gt;1</title>
<path fill="none" stroke="black" d="M279.43,-282C271.4,-270.43 259.87,-255.77 247,-245.5 232.38,-233.83 213.7,-224.48 198.06,-217.86"/>
<polygon fill="black" stroke="black" points="199.8,-214.78 189.22,-214.28 197.18,-221.27 199.8,-214.78"/>
<text xml:space="preserve" text-anchor="middle" x="266" y="-247.95" font-family="Times,serif" font-size="14.00">k</text>
</g>
<!-- 1&#45;&gt;7 -->
<g id="edge25" class="edge">
<title>1&#45;&gt;7</title>
<path fill="none" stroke="black" d="M180.91,-187.97C186.61,-181.09 193.21,-172.98 199,-165.5 205.99,-156.48 213.42,-146.44 219.96,-137.45"/>
<polygon fill="black" stroke="black" points="222.73,-139.58 225.75,-129.42 217.06,-135.48 222.73,-139.58"/>
<text xml:space="preserve" text-anchor="middle" x="213.62" y="-152.2" font-family="Times,serif" font-size="14.00">h</text>
</g>
<!-- 1&#45;&gt;2 -->
<g id="edge24" class="edge">
<title>1&#45;&gt;2</title>
<path fill="none" stroke="black" d="M174.58,-226.44C187.17,-259.58 212.48,-326.2 227.35,-365.35"/>
<polygon fill="black" stroke="black" points="224.07,-366.56 230.89,-374.66 230.61,-364.07 224.07,-366.56"/>
<text xml:space="preserve" text-anchor="middle" x="214.71" y="-295.82" font-family="Times,serif" font-size="14.00">g</text>
</g>
<!-- 1&#45;&gt;1 -->
<g id="edge26" class="edge">
<title>1&#45;&gt;1</title>
<path fill="none" stroke="black" d="M187.58,-214.21C197.84,-215.42 207,-212.51 207,-205.5 207,-201.34 203.77,-198.62 199,-197.35"/>
<polygon fill="black" stroke="black" points="199.25,-193.86 189.09,-196.86 198.91,-200.85 199.25,-193.86"/>
<text xml:space="preserve" text-anchor="middle" x="210.75" y="-200.07" font-family="Times,serif" font-size="14.00">k</text>
</g>
<!-- 0&#45;&gt;6 -->
<g id="edge28" class="edge">
<title>0&#45;&gt;6</title>
<path fill="none" stroke="black" d="M110.09,-183.59C118.05,-153.38 135.35,-96.48 162,-54 164.98,-49.25 168.58,-44.48 172.23,-40.05"/>
<polygon fill="black" stroke="black" points="174.69,-42.55 178.63,-32.71 169.42,-37.95 174.69,-42.55"/>
<text xml:space="preserve" text-anchor="middle" x="146.91" y="-104.33" font-family="Times,serif" font-size="14.00">g</text>
</g>
<!-- 0&#45;&gt;6 -->
<g id="edge30" class="edge">
<title>0&#45;&gt;6</title>
<path fill="none" stroke="black" d="M117.2,-187.1C121.87,-180.38 127.22,-172.61 132,-165.5 141.99,-150.64 146.19,-147.86 154,-131.75 167.49,-103.92 178.2,-70.08 184.76,-46.78"/>
<polygon fill="black" stroke="black" points="188.06,-47.98 187.33,-37.41 181.31,-46.13 188.06,-47.98"/>
<text xml:space="preserve" text-anchor="middle" x="175.54" y="-104.33" font-family="Times,serif" font-size="14.00">k</text>
</g>
<!-- 0&#45;&gt;7 -->
<g id="edge29" class="edge">
<title>0&#45;&gt;7</title>
<path fill="none" stroke="black" d="M122.84,-191.99C127.1,-189.12 131.67,-186.14 136,-183.5 150.27,-174.81 155.04,-174.68 169,-165.5 184.46,-155.34 200.79,-142.69 213.79,-132.1"/>
<polygon fill="black" stroke="black" points="215.95,-134.86 221.44,-125.79 211.5,-129.46 215.95,-134.86"/>
<text xml:space="preserve" text-anchor="middle" x="194.3" y="-152.2" font-family="Times,serif" font-size="14.00">h</text>
</g>
</g>
</svg>
