<?xml version="1.0" encoding="UTF-8" standalone="no"?>
<!DOCTYPE svg PUBLIC "-//W3C//DTD SVG 1.1//EN"
 "http://www.w3.org/Graphics/SVG/1.1/DTD/svg11.dtd">
<!-- Generated by graphviz version 14.0.4 (0)
 -->
<!-- Pages: 1 -->
<svg width="1083pt" height="3032pt"
 viewBox="0.00 0.00 1083.00 3032.00" xmlns="http://www.w3.org/2000/svg" xmlns:xlink="http://www.w3.org/1999/xlink">
<g id="graph0" class="graph" transform="scale(4.16667 4.16667) rotate(0) translate(4 723.75)">
<polygon fill="white" stroke="none" points="-4,4 -4,-723.75 256,-723.75 256,4 -4,4"/>
<!-- start -->
<g id="node1" class="node">
<title>start</title>
</g>
<!-- 5 -->
<g id="node2" class="node">
<title>5</title>
<ellipse fill="none" stroke="black" cx="27" cy="-624.75" rx="18" ry="18"/>
<ellipse fill="none" stroke="black" cx="27" cy="-624.75" rx="22" ry="22"/>
<text xml:space="preserve" text-anchor="middle" x="27" y="-619.33" font-family="Times,serif" font-size="14.00">5</text>
</g>
<!-- start&#45;&gt;5 -->
<g id="edge1" class="edge">
<title>start&#45;&gt;5</title>
<path fill="none" stroke="black" d="M27,-684.11C27,-676.54 27,-667.32 27,-658.46"/>
<polygon fill="black" stroke="black" points="30.5,-658.71 27,-648.71 23.5,-658.71 30.5,-658.71"/>
</g>
<!-- 6 -->
<g id="node3" class="node">
<title>6</title>
<ellipse fill="none" stroke="black" cx="99" cy="-22" rx="18" ry="18"/>
<ellipse fill="none" stroke="black" cx="99" cy="-22" rx="22" ry="22"/>
<text xml:space="preserve" text-anchor="middle" x="99" y="-16.57" font-family="Times,serif" font-size="14.00">6</text>
</g>
<!-- 5&#45;&gt;6 -->
<g id="edge2" class="edge">
<title>5&#45;&gt;6</title>
<path fill="none" stroke="black" d="M21.4,-603.07C16.79,-584.19 11,-555.43 11,-530 11,-530 11,-530 11,-116.75 11,-81.67 44.16,-54.33 69.77,-38.45"/>
<polygon fill="black" stroke="black" points="71.32,-41.6 78.17,-33.51 67.77,-35.56 71.32,-41.6"/>
<text xml:space="preserve" text-anchor="middle" x="14.38" y="-332.07" font-family="Times,serif" font-size="14.00">h</text>
</g>
<!-- 8 -->
<g id="node4" class="node">
<title>8</title>
<ellipse fill="none" stroke="black" cx="83" cy="-529" rx="18" ry="18"/>
<ellipse fill="none" stroke="black" cx="83" cy="-529" rx="22" ry="22"/>
<text xml:space="preserve" text-anchor="middle" x="83" y="-523.58" font-family="Times,serif" font-size="14.00">8</text>
</g>
<!-- 5&#45;&gt;8 -->
<g id="edge4" class="edge">
<title>5&#45;&gt;8</title>
<path fill="none" stroke="black" d="M38.06,-605.23C46.12,-591.75 57.16,-573.25 66.29,-557.97"/>
<polygon fill="black" stroke="black" points="69.06,-560.16 71.18,-549.78 63.05,-556.57 69.06,-560.16"/>
<text xml:space="preserve" text-anchor="middle" x="62.1" y="-571.45" font-family="Times,serif" font-size="14.00">k</text>
</g>
<!-- 6&#45;&gt;6 -->
<g id="edge3" class="edge">
<title>6&#45;&gt;6</title>
<path fill="none" stroke="black" d="M119.58,-30.71C129.84,-31.92 139,-29.01 139,-22 139,-17.84 135.77,-15.12 131,-13.85"/>
<polygon fill="black" stroke="black" points="131.25,-10.36 121.09,-13.36 130.91,-17.35 131.25,-10.36"/>
<text xml:space="preserve" text-anchor="middle" x="142.38" y="-16.57" font-family="Times,serif" font-size="14.00">h</text>
</g>
<!-- 4 -->
<g id="node5" class="node">
<title>4</title>
<ellipse fill="none" stroke="black" cx="83" cy="-433.25" rx="18" ry="18"/>
<ellipse fill="none" stroke="black" cx="83" cy="-433.25" rx="22" ry="22"/>
<text xml:space="preserve" text-anchor="middle" x="83" y="-427.82" font-family="Times,serif" font-size="14.00">4</text>
</g>
<!-- 8&#45;&gt;4 -->
<g id="edge5" class="edge">
<title>8&#45;&gt;4</title>
<path fill="none" stroke="black" d="M83,-506.73C83,-494.98 83,-480.14 83,-466.95"/>
<polygon fill="black" stroke="black" points="86.5,-466.95 83,-456.95 79.5,-466.95 86.5,-466.95"/>
<text xml:space="preserve" text-anchor="middle" x="86.38" y="-475.7" font-family="Times,serif" font-size="14.00">h</text>
</g>
<!-- 3 -->
<g id="node6" class="node">
<title>3</title>
<ellipse fill="none" stroke="black" cx="181" cy="-433.25" rx="18" ry="18"/>
<ellipse fill="none" stroke="black" cx="181" cy="-433.25" rx="22" ry="22"/>
<text xml:space="preserve" text-anchor="middle" x="181" y="-427.82" font-family="Times,serif" font-size="14.00">3</text>
</g>
<!-- 8&#45;&gt;3 -->
<g id="edge7" class="edge">
<title>8&#45;&gt;3</title>
<path fill="none" stroke="black" d="M98.75,-512.94C114.6,-497.77 139.26,-474.18 157.45,-456.78"/>
<polygon fill="black" stroke="black" points="159.39,-459.76 164.2,-450.32 154.55,-454.7 159.39,-459.76"/>
<text xml:space="preserve" text-anchor="middle" x="141.62" y="-475.7" font-family="Times,serif" font-size="14.00">k</text>
</g>
<!-- 4&#45;&gt;4 -->
<g id="edge6" class="edge">
<title>4&#45;&gt;4</title>
<path fill="none" stroke="black" d="M103.58,-441.96C113.84,-443.17 123,-440.26 123,-433.25 123,-429.09 119.77,-426.37 115,-425.1"/>
<polygon fill="black" stroke="black" points="115.25,-421.61 105.09,-424.61 114.91,-428.6 115.25,-421.61"/>
<text xml:space="preserve" text-anchor="middle" x="126.38" y="-427.82" font-family="Times,serif" font-size="14.00">h</text>
</g>
<!-- 2 -->
<g id="node7" class="node">
<title>2</title>
<ellipse fill="none" stroke="black" cx="129" cy="-337.5" rx="18" ry="18"/>
<ellipse fill="none" stroke="black" cx="129" cy="-337.5" rx="22" ry="22"/>
<text xml:space="preserve" text-anchor="middle" x="129" y="-332.07" font-family="Times,serif" font-size="14.00">2</text>
</g>
<!-- 3&#45;&gt;2 -->
<g id="edge8" class="edge">
<title>3&#45;&gt;2</title>
<path fill="none" stroke="black" d="M170.73,-413.73C163.37,-400.46 153.32,-382.34 144.92,-367.21"/>
<polygon fill="black" stroke="black" points="148.08,-365.68 140.16,-358.63 141.95,-369.07 148.08,-365.68"/>
<text xml:space="preserve" text-anchor="middle" x="161.49" y="-379.95" font-family="Times,serif" font-size="14.00">g</text>
</g>
<!-- 1 -->
<g id="node9" class="node">
<title>1</title>
<ellipse fill="none" stroke="black" cx="150" cy="-117.75" rx="18" ry="18"/>
<ellipse fill="none" stroke="black" cx="150" cy="-117.75" rx="22" ry="22"/>
<text xml:space="preserve" text-anchor="middle" x="150" y="-112.33" font-family="Times,serif" font-size="14.00">1</text>
</g>
<!-- 3&#45;&gt;1 -->
<g id="edge18" class="edge">
<title>3&#45;&gt;1</title>
<path fill="none" stroke="black" d="M180.35,-410.77C178.71,-364.35 173.46,-251.3 159,-157.75 158.64,-155.39 158.21,-152.96 157.74,-150.52"/>
<polygon fill="black" stroke="black" points="161.16,-149.81 155.65,-140.77 154.32,-151.28 161.16,-149.81"/>
<text xml:space="preserve" text-anchor="middle" x="177.77" y="-270.07" font-family="Times,serif" font-size="14.00">k</text>
</g>
<!-- 0 -->
<g id="node10" class="node">
<title>0</title>
<ellipse fill="none" stroke="black" cx="230" cy="-275.5" rx="18" ry="18"/>
<ellipse fill="none" stroke="black" cx="230" cy="-275.5" rx="22" ry="22"/>
<text xml:space="preserve" text-anchor="middle" x="230" y="-270.07" font-family="Times,serif" font-size="14.00">0</text>
</g>
<!-- 3&#45;&gt;0 -->
<g id="edge16" class="edge">
<title>3&#45;&gt;0</title>
<path fill="none" stroke="black" d="M193.9,-415.14C198.31,-408.58 202.91,-400.85 206,-393.25 217.07,-366.03 223.25,-333.08 226.55,-309.14"/>
<polygon fill="black" stroke="black" points="230,-309.71 227.8,-299.35 223.06,-308.83 230,-309.71"/>
<text xml:space="preserve" text-anchor="middle" x="214.9" y="-379.95" font-family="Times,serif" font-size="14.00">h</text>
</g>
<!-- 2&#45;&gt;6 -->
<g id="edge9" class="edge">
<title>2&#45;&gt;6</title>
<path fill="none" stroke="black" d="M115.03,-319.98C100,-301.02 77.04,-268.28 68,-235.5 50.52,-172.09 71.85,-95.16 86.81,-53.46"/>
<polygon fill="black" stroke="black" points="90.09,-54.68 90.29,-44.09 83.52,-52.24 90.09,-54.68"/>
<text xml:space="preserve" text-anchor="middle" x="65.96" y="-160.2" font-family="Times,serif" font-size="14.00">h</text>
</g>
<!-- 7 -->
<g id="node8" class="node">
<title>7</title>
<ellipse fill="none" stroke="black" cx="99" cy="-213.5" rx="18" ry="18"/>
<ellipse fill="none" stroke="black" cx="99" cy="-213.5" rx="22" ry="22"/>
<text xml:space="preserve" text-anchor="middle" x="99" y="-208.07" font-family="Times,serif" font-size="14.00">7</text>
</g>
<!-- 2&#45;&gt;7 -->
<g id="edge10" class="edge">
<title>2&#45;&gt;7</title>
<path fill="none" stroke="black" d="M123.91,-315.8C119.23,-296.79 112.23,-268.31 106.84,-246.39"/>
<polygon fill="black" stroke="black" points="110.26,-245.64 104.48,-236.77 103.46,-247.31 110.26,-245.64"/>
<text xml:space="preserve" text-anchor="middle" x="123.05" y="-270.07" font-family="Times,serif" font-size="14.00">k</text>
</g>
<!-- 7&#45;&gt;6 -->
<g id="edge11" class="edge">
<title>7&#45;&gt;6</title>
<path fill="none" stroke="black" d="M99,-191.13C99,-158.13 99,-94.53 99,-55.72"/>
<polygon fill="black" stroke="black" points="102.5,-55.81 99,-45.81 95.5,-55.81 102.5,-55.81"/>
<text xml:space="preserve" text-anchor="middle" x="102.38" y="-112.33" font-family="Times,serif" font-size="14.00">h</text>
</g>
<!-- 7&#45;&gt;1 -->
<g id="edge12" class="edge">
<title>7&#45;&gt;1</title>
<path fill="none" stroke="black" d="M109.32,-193.53C116.51,-180.31 126.23,-162.44 134.37,-147.49"/>
<polygon fill="black" stroke="black" points="137.27,-149.48 138.97,-139.02 131.12,-146.13 137.27,-149.48"/>
<text xml:space="preserve" text-anchor="middle" x="131.3" y="-160.2" font-family="Times,serif" font-size="14.00">k</text>
</g>
<!-- 1&#45;&gt;6 -->
<g id="edge14" class="edge">
<title>1&#45;&gt;6</title>
<path fill="none" stroke="black" d="M139.68,-97.78C132.49,-84.56 122.77,-66.69 114.63,-51.74"/>
<polygon fill="black" stroke="black" points="117.88,-50.38 110.03,-43.27 111.73,-53.73 117.88,-50.38"/>
<text xml:space="preserve" text-anchor="middle" x="130.93" y="-64.45" font-family="Times,serif" font-size="14.00">h</text>
</g>
<!-- 1&#45;&gt;2 -->
<g id="edge13" class="edge">
<title>1&#45;&gt;2</title>
<path fill="none" stroke="black" d="M147.94,-140.11C144.25,-178.39 136.49,-258.87 132.13,-304.02"/>
<polygon fill="black" stroke="black" points="128.67,-303.43 131.2,-313.72 135.64,-304.1 128.67,-303.43"/>
<text xml:space="preserve" text-anchor="middle" x="146.32" y="-208.07" font-family="Times,serif" font-size="14.00">g</text>
</g>
<!-- 1&#45;&gt;1 -->
<g id="edge15" class="edge">
<title>1&#45;&gt;1</title>
<path fill="none" stroke="black" d="M170.58,-126.46C180.84,-127.67 190,-124.76 190,-117.75 190,-113.59 186.77,-110.87 182,-109.6"/>
<polygon fill="black" stroke="black" points="182.25,-106.11 172.09,-109.11 181.91,-113.1 182.25,-106.11"/>
<text xml:space="preserve" text-anchor="middle" x="193.75" y="-112.33" font-family="Times,serif" font-size="14.00">k</text>
</g>
<!-- 0&#45;&gt;6 -->
<g id="edge17" class="edge">
<title>0&#45;&gt;6</title>
<path fill="none" stroke="black" d="M232.59,-253.39C235.84,-217.97 237.73,-145.54 207,-95.75 189.21,-66.93 155.25,-46.92 130.14,-35.29"/>
<polygon fill="black" stroke="black" points="131.6,-32.11 121.04,-31.28 128.78,-38.51 131.6,-32.11"/>
<text xml:space="preserve" text-anchor="middle" x="235.13" y="-160.2" font-family="Times,serif" font-size="14.00">h</text>
</g>
</g>
</svg>
