<?xml version="1.0" encoding="UTF-8" standalone="no"?>
<!DOCTYPE svg PUBLIC "-//W3C//DTD SVG 1.1//EN"
 "http://www.w3.org/Graphics/SVG/1.1/DTD/svg11.dtd">
<!-- Generated by graphviz version 14.0.4 (0)
 -->
<!-- Pages: 1 -->
<svg width="1965pt" height="3280pt"
 viewBox="0.00 0.00 1965.00 3280.00" xmlns="http://www.w3.org/2000/svg" xmlns:xlink="http://www.w3.org/1999/xlink">
<g id="graph0" class="graph" transform="scale(4.16667 4.16667) rotate(0) translate(4 783.25)">
<polygon fill="white" stroke="none" points="-4,4 -4,-783.25 467.62,-783.25 467.62,4 -4,4"/>
<!-- s0 -->
<g id="node1" class="node">
<title>s0</title>
<ellipse fill="none" stroke="black" cx="274.87" cy="-18" rx="18" ry="18"/>
<text xml:space="preserve" text-anchor="middle" x="274.87" y="-12.57" font-family="Times,serif" font-size="14.00">0</text>
</g>
<!-- s0&#45;&gt;s0 -->
<g id="edge29" class="edge">
<title>s0&#45;&gt;s0</title>
<path fill="none" stroke="black" d="M293.03,-20.65C302.41,-21.05 310.87,-20.17 310.87,-18 310.87,-16.81 308.34,-16.01 304.51,-15.59"/>
<polygon fill="black" stroke="black" points="304.61,-12.1 294.54,-15.39 304.46,-19.09 304.61,-12.1"/>
<text xml:space="preserve" text-anchor="middle" x="314.62" y="-12.57" font-family="Times,serif" font-size="14.00">k</text>
</g>
<!-- s0&#45;&gt;s0 -->
<g id="edge30" class="edge">
<title>s0&#45;&gt;s0</title>
<path fill="none" stroke="black" d="M292.57,-22.36C309.87,-24.77 328.87,-23.31 328.87,-18 328.87,-13.85 317.27,-12.05 303.95,-12.62"/>
<polygon fill="black" stroke="black" points="303.73,-9.12 294.08,-13.51 304.35,-16.09 303.73,-9.12"/>
<text xml:space="preserve" text-anchor="middle" x="332.25" y="-12.57" font-family="Times,serif" font-size="14.00">g</text>
</g>
<!-- s0&#45;&gt;s0 -->
<g id="edge31" class="edge">
<title>s0&#45;&gt;s0</title>
<path fill="none" stroke="black" d="M292.23,-23.4C316.69,-28.5 346.87,-26.7 346.87,-18 346.87,-10.59 324.99,-8.19 303.38,-10.78"/>
<polygon fill="black" stroke="black" points="303.03,-7.3 293.72,-12.35 304.15,-14.2 303.03,-7.3"/>
<text xml:space="preserve" text-anchor="middle" x="350.25" y="-12.57" font-family="Times,serif" font-size="14.00">h</text>
</g>
<!-- s1 -->
<g id="node2" class="node">
<title>s1</title>
<ellipse fill="none" stroke="black" cx="169.87" cy="-109.75" rx="18" ry="18"/>
<ellipse fill="none" stroke="black" cx="169.87" cy="-109.75" rx="22" ry="22"/>
<text xml:space="preserve" text-anchor="middle" x="169.87" y="-104.33" font-family="Times,serif" font-size="14.00">1</text>
</g>
<!-- s1&#45;&gt;s0 -->
<g id="edge5" class="edge">
<title>s1&#45;&gt;s0</title>
<path fill="none" stroke="black" d="M185.87,-94.12C198.17,-82.96 215.66,-67.3 231.37,-54 238.09,-48.32 245.51,-42.26 252.29,-36.82"/>
<polygon fill="black" stroke="black" points="254.2,-39.78 259.83,-30.8 249.83,-34.3 254.2,-39.78"/>
<text xml:space="preserve" text-anchor="middle" x="235.12" y="-56.45" font-family="Times,serif" font-size="14.00">k</text>
</g>
<!-- s1&#45;&gt;s0 -->
<g id="edge6" class="edge">
<title>s1&#45;&gt;s0</title>
<path fill="none" stroke="black" d="M178.35,-89.1C184.03,-77.71 192.44,-63.74 203.12,-54 215.65,-42.58 232.58,-34.08 246.85,-28.32"/>
<polygon fill="black" stroke="black" points="248.05,-31.61 256.18,-24.82 245.58,-25.06 248.05,-31.61"/>
<text xml:space="preserve" text-anchor="middle" x="206.5" y="-56.45" font-family="Times,serif" font-size="14.00">g</text>
</g>
<!-- s1&#45;&gt;s1 -->
<g id="edge7" class="edge">
<title>s1&#45;&gt;s1</title>
<path fill="none" stroke="black" d="M190.45,-118.46C200.72,-119.67 209.87,-116.76 209.87,-109.75 209.87,-105.59 206.65,-102.87 201.87,-101.6"/>
<polygon fill="black" stroke="black" points="202.13,-98.11 191.97,-101.11 201.78,-105.1 202.13,-98.11"/>
<text xml:space="preserve" text-anchor="middle" x="213.25" y="-104.33" font-family="Times,serif" font-size="14.00">h</text>
</g>
<!-- s2 -->
<g id="node3" class="node">
<title>s2</title>
<ellipse fill="none" stroke="black" cx="281.87" cy="-205.5" rx="18" ry="18"/>
<ellipse fill="none" stroke="black" cx="281.87" cy="-205.5" rx="22" ry="22"/>
<text xml:space="preserve" text-anchor="middle" x="281.87" y="-200.07" font-family="Times,serif" font-size="14.00">2</text>
</g>
<!-- s2&#45;&gt;s0 -->
<g id="edge17" class="edge">
<title>s2&#45;&gt;s0</title>
<path fill="none" stroke="black" d="M276.58,-183.65C273.2,-169.2 269.12,-149.44 267.37,-131.75 265.45,-112.29 266.31,-107.28 267.37,-87.75 268.1,-74.39 269.61,-59.64 271.09,-47.24"/>
<polygon fill="black" stroke="black" points="274.52,-48.05 272.29,-37.69 267.57,-47.18 274.52,-48.05"/>
<text xml:space="preserve" text-anchor="middle" x="271.12" y="-104.33" font-family="Times,serif" font-size="14.00">k</text>
</g>
<!-- s2&#45;&gt;s0 -->
<g id="edge18" class="edge">
<title>s2&#45;&gt;s0</title>
<path fill="none" stroke="black" d="M283.58,-183.48C285.6,-154.31 288.06,-99.96 282.87,-54 282.61,-51.63 282.24,-49.18 281.81,-46.74"/>
<polygon fill="black" stroke="black" points="285.26,-46.15 279.78,-37.08 278.41,-47.59 285.26,-46.15"/>
<text xml:space="preserve" text-anchor="middle" x="289.34" y="-104.33" font-family="Times,serif" font-size="14.00">g</text>
</g>
<!-- s2&#45;&gt;s1 -->
<g id="edge19" class="edge">
<title>s2&#45;&gt;s1</title>
<path fill="none" stroke="black" d="M265.72,-190.13C253.09,-178.97 235.03,-163.19 218.87,-149.75 211.47,-143.59 203.32,-137.02 195.83,-131.07"/>
<polygon fill="black" stroke="black" points="198,-128.32 187.99,-124.87 193.66,-133.82 198,-128.32"/>
<text xml:space="preserve" text-anchor="middle" x="239.75" y="-152.2" font-family="Times,serif" font-size="14.00">h</text>
</g>
<!-- s3 -->
<g id="node4" class="node">
<title>s3</title>
<ellipse fill="none" stroke="black" cx="381.87" cy="-109.75" rx="18" ry="18"/>
<ellipse fill="none" stroke="black" cx="381.87" cy="-109.75" rx="22" ry="22"/>
<text xml:space="preserve" text-anchor="middle" x="381.87" y="-104.33" font-family="Times,serif" font-size="14.00">3</text>
</g>
<!-- s3&#45;&gt;s0 -->
<g id="edge11" class="edge">
<title>s3&#45;&gt;s0</title>
<path fill="none" stroke="black" d="M371.64,-90.01C364.68,-78.54 354.61,-64.16 342.87,-54 330.95,-43.68 315.46,-35.4 302.27,-29.49"/>
<polygon fill="black" stroke="black" points="303.84,-26.35 293.26,-25.68 301.11,-32.8 303.84,-26.35"/>
<text xml:space="preserve" text-anchor="middle" x="360.52" y="-56.45" font-family="Times,serif" font-size="14.00">k</text>
</g>
<!-- s3&#45;&gt;s0 -->
<g id="edge12" class="edge">
<title>s3&#45;&gt;s0</title>
<path fill="none" stroke="black" d="M381.02,-87.32C379.53,-76.19 375.99,-63.06 367.87,-54 351.61,-35.85 324.97,-27.07 304.37,-22.85"/>
<polygon fill="black" stroke="black" points="305,-19.41 294.54,-21.12 303.79,-26.3 305,-19.41"/>
<text xml:space="preserve" text-anchor="middle" x="380.25" y="-56.45" font-family="Times,serif" font-size="14.00">g</text>
</g>
<!-- s3&#45;&gt;s3 -->
<g id="edge13" class="edge">
<title>s3&#45;&gt;s3</title>
<path fill="none" stroke="black" d="M402.45,-118.46C412.72,-119.67 421.87,-116.76 421.87,-109.75 421.87,-105.59 418.65,-102.87 413.87,-101.6"/>
<polygon fill="black" stroke="black" points="414.13,-98.11 403.97,-101.11 413.78,-105.1 414.13,-98.11"/>
<text xml:space="preserve" text-anchor="middle" x="425.25" y="-104.33" font-family="Times,serif" font-size="14.00">h</text>
</g>
<!-- s4 -->
<g id="node5" class="node">
<title>s4</title>
<ellipse fill="none" stroke="black" cx="170.87" cy="-397" rx="18" ry="18"/>
<ellipse fill="none" stroke="black" cx="170.87" cy="-397" rx="22" ry="22"/>
<text xml:space="preserve" text-anchor="middle" x="170.87" y="-391.57" font-family="Times,serif" font-size="14.00">4</text>
</g>
<!-- s4&#45;&gt;s0 -->
<g id="edge21" class="edge">
<title>s4&#45;&gt;s0</title>
<path fill="none" stroke="black" d="M152.75,-384.42C101.2,-349.96 -39.36,-244.59 10.87,-149.75 57.7,-61.35 187.08,-31.71 245.53,-22.64"/>
<polygon fill="black" stroke="black" points="245.98,-26.11 255.37,-21.22 244.98,-19.18 245.98,-26.11"/>
<text xml:space="preserve" text-anchor="middle" x="9.27" y="-200.07" font-family="Times,serif" font-size="14.00">g</text>
</g>
<!-- s4&#45;&gt;s1 -->
<g id="edge22" class="edge">
<title>s4&#45;&gt;s1</title>
<path fill="none" stroke="black" d="M180.38,-376.74C197.64,-339.2 230.69,-253.73 211.87,-183.5 207.45,-167 198.28,-150.37 189.64,-137.18"/>
<polygon fill="black" stroke="black" points="192.62,-135.33 184.07,-129.07 186.85,-139.3 192.62,-135.33"/>
<text xml:space="preserve" text-anchor="middle" x="220.26" y="-247.95" font-family="Times,serif" font-size="14.00">h</text>
</g>
<!-- s6 -->
<g id="node7" class="node">
<title>s6</title>
<ellipse fill="none" stroke="black" cx="112.87" cy="-301.25" rx="18" ry="18"/>
<ellipse fill="none" stroke="black" cx="112.87" cy="-301.25" rx="22" ry="22"/>
<text xml:space="preserve" text-anchor="middle" x="112.87" y="-295.82" font-family="Times,serif" font-size="14.00">6</text>
</g>
<!-- s4&#45;&gt;s6 -->
<g id="edge20" class="edge">
<title>s4&#45;&gt;s6</title>
<path fill="none" stroke="black" d="M159.69,-377.92C151.32,-364.39 139.71,-345.64 130.15,-330.18"/>
<polygon fill="black" stroke="black" points="133.25,-328.54 125.02,-321.88 127.3,-332.22 133.25,-328.54"/>
<text xml:space="preserve" text-anchor="middle" x="149.1" y="-343.7" font-family="Times,serif" font-size="14.00">k</text>
</g>
<!-- s5 -->
<g id="node6" class="node">
<title>s5</title>
<ellipse fill="none" stroke="black" cx="331.87" cy="-684.25" rx="18" ry="18"/>
<ellipse fill="none" stroke="black" cx="331.87" cy="-684.25" rx="22" ry="22"/>
<text xml:space="preserve" text-anchor="middle" x="331.87" y="-678.83" font-family="Times,serif" font-size="14.00">5</text>
</g>
<!-- s5&#45;&gt;s0 -->
<g id="edge3" class="edge">
<title>s5&#45;&gt;s0</title>
<path fill="none" stroke="black" d="M353.36,-677.8C389.1,-667.29 456.87,-640.63 456.87,-589.5 456.87,-589.5 456.87,-589.5 456.87,-108.75 456.87,-41.56 355.87,-24.67 304.35,-20.42"/>
<polygon fill="black" stroke="black" points="304.72,-16.94 294.5,-19.73 304.23,-23.93 304.72,-16.94"/>
<text xml:space="preserve" text-anchor="middle" x="460.25" y="-343.7" font-family="Times,serif" font-size="14.00">g</text>
</g>
<!-- s5&#45;&gt;s1 -->
<g id="edge4" class="edge">
<title>s5&#45;&gt;s1</title>
<path fill="none" stroke="black" d="M309.79,-681.32C239.4,-674.58 24.87,-649.13 24.87,-589.5 24.87,-589.5 24.87,-589.5 24.87,-204.5 24.87,-151.37 94.38,-126.87 137.15,-116.82"/>
<polygon fill="black" stroke="black" points="137.67,-120.29 146.69,-114.74 136.17,-113.45 137.67,-120.29"/>
<text xml:space="preserve" text-anchor="middle" x="28.25" y="-391.57" font-family="Times,serif" font-size="14.00">h</text>
</g>
<!-- s9 -->
<g id="node10" class="node">
<title>s9</title>
<ellipse fill="none" stroke="black" cx="331.87" cy="-588.5" rx="18" ry="18"/>
<ellipse fill="none" stroke="black" cx="331.87" cy="-588.5" rx="22" ry="22"/>
<text xml:space="preserve" text-anchor="middle" x="331.87" y="-583.08" font-family="Times,serif" font-size="14.00">9</text>
</g>
<!-- s5&#45;&gt;s9 -->
<g id="edge2" class="edge">
<title>s5&#45;&gt;s9</title>
<path fill="none" stroke="black" d="M331.87,-661.98C331.87,-650.23 331.87,-635.39 331.87,-622.2"/>
<polygon fill="black" stroke="black" points="335.37,-622.2 331.87,-612.2 328.37,-622.2 335.37,-622.2"/>
<text xml:space="preserve" text-anchor="middle" x="335.62" y="-630.95" font-family="Times,serif" font-size="14.00">k</text>
</g>
<!-- s6&#45;&gt;s0 -->
<g id="edge24" class="edge">
<title>s6&#45;&gt;s0</title>
<path fill="none" stroke="black" d="M107.85,-279.73C106.62,-273.8 105.49,-267.3 104.87,-261.25 104.17,-254.29 104.82,-252.5 104.87,-245.5 105.45,-173.78 95.19,-144.64 138.87,-87.75 165.59,-52.96 214.75,-34.39 246.08,-25.63"/>
<polygon fill="black" stroke="black" points="246.87,-29.04 255.66,-23.12 245.1,-22.27 246.87,-29.04"/>
<text xml:space="preserve" text-anchor="middle" x="110.87" y="-152.2" font-family="Times,serif" font-size="14.00">g</text>
</g>
<!-- s6&#45;&gt;s1 -->
<g id="edge25" class="edge">
<title>s6&#45;&gt;s1</title>
<path fill="none" stroke="black" d="M110.3,-278.91C108.21,-254.98 107.16,-215.35 118.12,-183.5 124.31,-165.52 136.46,-148.06 147.42,-134.76"/>
<polygon fill="black" stroke="black" points="149.88,-137.27 153.76,-127.41 144.58,-132.7 149.88,-137.27"/>
<text xml:space="preserve" text-anchor="middle" x="121.5" y="-200.07" font-family="Times,serif" font-size="14.00">h</text>
</g>
<!-- s7 -->
<g id="node8" class="node">
<title>s7</title>
<ellipse fill="none" stroke="black" cx="155.87" cy="-205.5" rx="18" ry="18"/>
<ellipse fill="none" stroke="black" cx="155.87" cy="-205.5" rx="22" ry="22"/>
<text xml:space="preserve" text-anchor="middle" x="155.87" y="-200.07" font-family="Times,serif" font-size="14.00">7</text>
</g>
<!-- s6&#45;&gt;s7 -->
<g id="edge23" class="edge">
<title>s6&#45;&gt;s7</title>
<path fill="none" stroke="black" d="M121.78,-280.82C127.72,-267.88 135.64,-250.62 142.35,-235.99"/>
<polygon fill="black" stroke="black" points="145.36,-237.82 146.34,-227.28 138.99,-234.91 145.36,-237.82"/>
<text xml:space="preserve" text-anchor="middle" x="140.7" y="-247.95" font-family="Times,serif" font-size="14.00">k</text>
</g>
<!-- s7&#45;&gt;s1 -->
<g id="edge28" class="edge">
<title>s7&#45;&gt;s1</title>
<path fill="none" stroke="black" d="M159.05,-183.23C160.82,-171.36 163.07,-156.34 165.05,-143.05"/>
<polygon fill="black" stroke="black" points="168.47,-143.84 166.49,-133.44 161.55,-142.81 168.47,-143.84"/>
<text xml:space="preserve" text-anchor="middle" x="167.09" y="-152.2" font-family="Times,serif" font-size="14.00">h</text>
</g>
<!-- s7&#45;&gt;s4 -->
<g id="edge27" class="edge">
<title>s7&#45;&gt;s4</title>
<path fill="none" stroke="black" d="M157.56,-227.79C160.17,-260.74 165.2,-324.34 168.28,-363.19"/>
<polygon fill="black" stroke="black" points="164.78,-363.43 169.06,-373.12 171.76,-362.88 164.78,-363.43"/>
<text xml:space="preserve" text-anchor="middle" x="168.48" y="-295.82" font-family="Times,serif" font-size="14.00">g</text>
</g>
<!-- s7&#45;&gt;s7 -->
<g id="edge26" class="edge">
<title>s7&#45;&gt;s7</title>
<path fill="none" stroke="black" d="M176.45,-214.21C186.72,-215.42 195.87,-212.51 195.87,-205.5 195.87,-201.34 192.65,-198.62 187.87,-197.35"/>
<polygon fill="black" stroke="black" points="188.13,-193.86 177.97,-196.86 187.78,-200.85 188.13,-193.86"/>
<text xml:space="preserve" text-anchor="middle" x="199.62" y="-200.07" font-family="Times,serif" font-size="14.00">k</text>
</g>
<!-- s8 -->
<g id="node9" class="node">
<title>s8</title>
<ellipse fill="none" stroke="black" cx="264.87" cy="-492.75" rx="18" ry="18"/>
<ellipse fill="none" stroke="black" cx="264.87" cy="-492.75" rx="22" ry="22"/>
<text xml:space="preserve" text-anchor="middle" x="264.87" y="-487.32" font-family="Times,serif" font-size="14.00">8</text>
</g>
<!-- s8&#45;&gt;s2 -->
<g id="edge16" class="edge">
<title>s8&#45;&gt;s2</title>
<path fill="none" stroke="black" d="M266.15,-470.31C269.11,-420.73 276.43,-297.91 279.94,-239.02"/>
<polygon fill="black" stroke="black" points="283.41,-239.5 280.51,-229.31 276.42,-239.08 283.41,-239.5"/>
<text xml:space="preserve" text-anchor="middle" x="277.14" y="-343.7" font-family="Times,serif" font-size="14.00">h</text>
</g>
<!-- s8&#45;&gt;s4 -->
<g id="edge15" class="edge">
<title>s8&#45;&gt;s4</title>
<path fill="none" stroke="black" d="M249.77,-476.69C234.78,-461.74 211.61,-438.63 194.25,-421.31"/>
<polygon fill="black" stroke="black" points="196.87,-418.99 187.32,-414.41 191.93,-423.95 196.87,-418.99"/>
<text xml:space="preserve" text-anchor="middle" x="226.88" y="-439.45" font-family="Times,serif" font-size="14.00">g</text>
</g>
<!-- s8&#45;&gt;s7 -->
<g id="edge14" class="edge">
<title>s8&#45;&gt;s7</title>
<path fill="none" stroke="black" d="M262.78,-470.56C257.06,-414.24 240.75,-263.86 227.87,-245.5 218.24,-231.77 202.21,-222.42 187.71,-216.32"/>
<polygon fill="black" stroke="black" points="189.06,-213.09 178.47,-212.81 186.57,-219.63 189.06,-213.09"/>
<text xml:space="preserve" text-anchor="middle" x="253.32" y="-343.7" font-family="Times,serif" font-size="14.00">k</text>
</g>
<!-- s9&#45;&gt;s0 -->
<g id="edge9" class="edge">
<title>s9&#45;&gt;s0</title>
<path fill="none" stroke="black" d="M331.87,-566.28C331.87,-547.28 331.87,-518.65 331.87,-493.75 331.87,-493.75 331.87,-493.75 331.87,-108.75 331.87,-81.24 312.56,-55.35 296.41,-38.51"/>
<polygon fill="black" stroke="black" points="299.03,-36.17 289.46,-31.63 294.11,-41.15 299.03,-36.17"/>
<text xml:space="preserve" text-anchor="middle" x="335.25" y="-295.82" font-family="Times,serif" font-size="14.00">g</text>
</g>
<!-- s9&#45;&gt;s3 -->
<g id="edge10" class="edge">
<title>s9&#45;&gt;s3</title>
<path fill="none" stroke="black" d="M345.31,-570.64C358.25,-552.68 375.87,-522.88 375.87,-493.75 375.87,-493.75 375.87,-493.75 375.87,-204.5 375.87,-184.13 377.3,-161.32 378.76,-143.3"/>
<polygon fill="black" stroke="black" points="382.24,-143.72 379.61,-133.46 375.27,-143.12 382.24,-143.72"/>
<text xml:space="preserve" text-anchor="middle" x="379.25" y="-343.7" font-family="Times,serif" font-size="14.00">h</text>
</g>
<!-- s9&#45;&gt;s8 -->
<g id="edge8" class="edge">
<title>s9&#45;&gt;s8</title>
<path fill="none" stroke="black" d="M319.27,-569.87C309.35,-555.99 295.36,-536.41 284.05,-520.59"/>
<polygon fill="black" stroke="black" points="286.96,-518.64 278.3,-512.54 281.27,-522.71 286.96,-518.64"/>
<text xml:space="preserve" text-anchor="middle" x="306.13" y="-535.2" font-family="Times,serif" font-size="14.00">k</text>
</g>
<!-- start -->
<g id="node11" class="node">
<title>start</title>
</g>
<!-- start&#45;&gt;s5 -->
<g id="edge1" class="edge">
<title>start&#45;&gt;s5</title>
<path fill="none" stroke="black" d="M331.87,-743.61C331.87,-736.04 331.87,-726.82 331.87,-717.96"/>
<polygon fill="black" stroke="black" points="335.37,-718.21 331.87,-708.21 328.37,-718.21 335.37,-718.21"/>
</g>
</g>
</svg>
