<?xml version="1.0" encoding="UTF-8" standalone="no"?>
<!DOCTYPE svg PUBLIC "-//W3C//DTD SVG 1.1//EN"
 "http://www.w3.org/Graphics/SVG/1.1/DTD/svg11.dtd">
<!-- Generated by graphviz version 14.0.4 (0)
 -->
<!-- Pages: 1 -->
<svg width="549pt" height="1718pt"
 viewBox="0.00 0.00 549.00 1718.00" xmlns="http://www.w3.org/2000/svg" xmlns:xlink="http://www.w3.org/1999/xlink">
<g id="graph0" class="graph" transform="scale(4.16667 4.16667) rotate(0) translate(4 408.25)">
<polygon fill="white" stroke="none" points="-4,4 -4,-408.25 127.74,-408.25 127.74,4 -4,4"/>
<!-- start -->
<g id="node1" class="node">
<title>start</title>
</g>
<!-- 2 -->
<g id="node2" class="node">
<title>2</title>
<ellipse fill="none" stroke="black" cx="80" cy="-309.25" rx="18" ry="18"/>
<ellipse fill="none" stroke="black" cx="80" cy="-309.25" rx="22" ry="22"/>
<text xml:space="preserve" text-anchor="middle" x="80" y="-303.82" font-family="Times,serif" font-size="14.00">2</text>
</g>
<!-- start&#45;&gt;2 -->
<g id="edge1" class="edge">
<title>start&#45;&gt;2</title>
<path fill="none" stroke="black" d="M80,-368.61C80,-361.04 80,-351.82 80,-342.96"/>
<polygon fill="black" stroke="black" points="83.5,-343.21 80,-333.21 76.5,-343.21 83.5,-343.21"/>
</g>
<!-- 3 -->
<g id="node3" class="node">
<title>3</title>
<ellipse fill="none" stroke="black" cx="22" cy="-213.5" rx="18" ry="18"/>
<ellipse fill="none" stroke="black" cx="22" cy="-213.5" rx="22" ry="22"/>
<text xml:space="preserve" text-anchor="middle" x="22" y="-208.07" font-family="Times,serif" font-size="14.00">3</text>
</g>
<!-- 2&#45;&gt;3 -->
<g id="edge2" class="edge">
<title>2&#45;&gt;3</title>
<path fill="none" stroke="black" d="M68.82,-290.17C60.45,-276.64 48.84,-257.89 39.28,-242.43"/>
<polygon fill="black" stroke="black" points="42.38,-240.79 34.14,-234.13 36.43,-244.47 42.38,-240.79"/>
<text xml:space="preserve" text-anchor="middle" x="58.22" y="-255.95" font-family="Times,serif" font-size="14.00">k</text>
</g>
<!-- 0 -->
<g id="node5" class="node">
<title>0</title>
<ellipse fill="none" stroke="black" cx="51" cy="-22" rx="18" ry="18"/>
<ellipse fill="none" stroke="black" cx="51" cy="-22" rx="22" ry="22"/>
<text xml:space="preserve" text-anchor="middle" x="51" y="-16.57" font-family="Times,serif" font-size="14.00">0</text>
</g>
<!-- 2&#45;&gt;0 -->
<g id="edge9" class="edge">
<title>2&#45;&gt;0</title>
<path fill="none" stroke="black" d="M88.39,-288.61C103.47,-250.39 131.49,-163.81 108,-95.75 101.39,-76.59 87.42,-58.62 74.97,-45.34"/>
<polygon fill="black" stroke="black" points="77.66,-43.08 68.16,-38.4 72.66,-47.99 77.66,-43.08"/>
<text xml:space="preserve" text-anchor="middle" x="120.37" y="-160.2" font-family="Times,serif" font-size="14.00">h</text>
</g>
<!-- 1 -->
<g id="node4" class="node">
<title>1</title>
<ellipse fill="none" stroke="black" cx="51" cy="-117.75" rx="18" ry="18"/>
<ellipse fill="none" stroke="black" cx="51" cy="-117.75" rx="22" ry="22"/>
<text xml:space="preserve" text-anchor="middle" x="51" y="-112.33" font-family="Times,serif" font-size="14.00">1</text>
</g>
<!-- 3&#45;&gt;1 -->
<g id="edge3" class="edge">
<title>3&#45;&gt;1</title>
<path fill="none" stroke="black" d="M28.29,-192.16C32.13,-179.75 37.11,-163.64 41.43,-149.68"/>
<polygon fill="black" stroke="black" points="44.66,-151.09 44.27,-140.5 37.97,-149.02 44.66,-151.09"/>
<text xml:space="preserve" text-anchor="middle" x="41.99" y="-160.2" font-family="Times,serif" font-size="14.00">k</text>
</g>
<!-- 3&#45;&gt;0 -->
<g id="edge8" class="edge">
<title>3&#45;&gt;0</title>
<path fill="none" stroke="black" d="M16.65,-191.94C11.38,-168.36 5.2,-128.73 13.25,-95.75 17.14,-79.82 25.17,-63.5 32.83,-50.36"/>
<polygon fill="black" stroke="black" points="35.79,-52.22 38.02,-41.87 29.82,-48.57 35.79,-52.22"/>
<text xml:space="preserve" text-anchor="middle" x="16.62" y="-112.33" font-family="Times,serif" font-size="14.00">h</text>
</g>
<!-- 1&#45;&gt;2 -->
<g id="edge5" class="edge">
<title>1&#45;&gt;2</title>
<path fill="none" stroke="black" d="M54.23,-139.85C59.29,-172.92 69.13,-237.19 75.07,-276.06"/>
<polygon fill="black" stroke="black" points="71.58,-276.39 76.56,-285.75 78.5,-275.34 71.58,-276.39"/>
<text xml:space="preserve" text-anchor="middle" x="72.23" y="-208.07" font-family="Times,serif" font-size="14.00">g</text>
</g>
<!-- 1&#45;&gt;1 -->
<g id="edge4" class="edge">
<title>1&#45;&gt;1</title>
<path fill="none" stroke="black" d="M71.58,-126.46C81.84,-127.67 91,-124.76 91,-117.75 91,-113.59 87.77,-110.87 83,-109.6"/>
<polygon fill="black" stroke="black" points="83.25,-106.11 73.09,-109.11 82.91,-113.1 83.25,-106.11"/>
<text xml:space="preserve" text-anchor="middle" x="94.75" y="-112.33" font-family="Times,serif" font-size="14.00">k</text>
</g>
<!-- 1&#45;&gt;0 -->
<g id="edge6" class="edge">
<title>1&#45;&gt;0</title>
<path fill="none" stroke="black" d="M51,-95.48C51,-83.73 51,-68.89 51,-55.7"/>
<polygon fill="black" stroke="black" points="54.5,-55.7 51,-45.7 47.5,-55.7 54.5,-55.7"/>
<text xml:space="preserve" text-anchor="middle" x="54.38" y="-64.45" font-family="Times,serif" font-size="14.00">h</text>
</g>
<!-- 0&#45;&gt;0 -->
<g id="edge7" class="edge">
<title>0&#45;&gt;0</title>
<path fill="none" stroke="black" d="M71.58,-30.71C81.84,-31.92 91,-29.01 91,-22 91,-17.84 87.77,-15.12 83,-13.85"/>
<polygon fill="black" stroke="black" points="83.25,-10.36 73.09,-13.36 82.91,-17.35 83.25,-10.36"/>
<text xml:space="preserve" text-anchor="middle" x="94.38" y="-16.57" font-family="Times,serif" font-size="14.00">h</text>
</g>
</g>
</svg>
