<?xml version="1.0" encoding="UTF-8" standalone="no"?>
<!DOCTYPE svg PUBLIC "-//W3C//DTD SVG 1.1//EN"
 "http://www.w3.org/Graphics/SVG/1.1/DTD/svg11.dtd">
<!-- Generated by graphviz version 14.0.4 (0)
 -->
<!-- Pages: 1 -->
<svg width="1619pt" height="7965pt"
 viewBox="0.00 0.00 1619.00 7965.00" xmlns="http://www.w3.org/2000/svg" xmlns:xlink="http://www.w3.org/1999/xlink">
<g id="graph0" class="graph" transform="scale(4.16667 4.16667) rotate(0) translate(4 1907.58)">
<polygon fill="white" stroke="none" points="-4,4 -4,-1907.58 384.63,-1907.58 384.63,4 -4,4"/>
<!-- start -->
<g id="node1" class="node">
<title>start</title>
</g>
<!-- 0 -->
<g id="node2" class="node">
<title>0</title>
<ellipse fill="none" stroke="black" cx="308" cy="-1812.58" rx="18" ry="18"/>
<text xml:space="preserve" text-anchor="middle" x="308" y="-1807.15" font-family="Times,serif" font-size="14.00">0</text>
</g>
<!-- start&#45;&gt;0 -->
<g id="edge1" class="edge">
<title>start&#45;&gt;0</title>
<path fill="none" stroke="black" d="M308,-1867.75C308,-1860.14 308,-1850.93 308,-1842.27"/>
<polygon fill="black" stroke="black" points="311.5,-1842.54 308,-1832.54 304.5,-1842.54 311.5,-1842.54"/>
</g>
<!-- 1 -->
<g id="node3" class="node">
<title>1</title>
<ellipse fill="none" stroke="black" cx="281" cy="-1723.2" rx="18" ry="18"/>
<text xml:space="preserve" text-anchor="middle" x="281" y="-1717.78" font-family="Times,serif" font-size="14.00">1</text>
</g>
<!-- 0&#45;&gt;1 -->
<g id="edge2" class="edge">
<title>0&#45;&gt;1</title>
<path fill="none" stroke="black" d="M302.92,-1795.14C299.14,-1782.89 293.88,-1765.89 289.47,-1751.6"/>
<polygon fill="black" stroke="black" points="292.89,-1750.83 286.59,-1742.31 286.2,-1752.89 292.89,-1750.83"/>
<text xml:space="preserve" text-anchor="middle" x="299.92" y="-1763.28" font-family="Times,serif" font-size="14.00">ε</text>
</g>
<!-- 32 -->
<g id="node34" class="node">
<title>32</title>
<ellipse fill="none" stroke="black" cx="337" cy="-1723.2" rx="19.63" ry="19.63"/>
<text xml:space="preserve" text-anchor="middle" x="337" y="-1717.78" font-family="Times,serif" font-size="14.00">32</text>
</g>
<!-- 0&#45;&gt;32 -->
<g id="edge42" class="edge">
<title>0&#45;&gt;32</title>
<path fill="none" stroke="black" d="M313.45,-1795.14C317.39,-1783.28 322.81,-1766.97 327.45,-1752.97"/>
<polygon fill="black" stroke="black" points="330.66,-1754.4 330.49,-1743.81 324.02,-1752.2 330.66,-1754.4"/>
<text xml:space="preserve" text-anchor="middle" x="327.24" y="-1763.28" font-family="Times,serif" font-size="14.00">ε</text>
</g>
<!-- 2 -->
<g id="node4" class="node">
<title>2</title>
<ellipse fill="none" stroke="black" cx="217" cy="-1632.2" rx="18" ry="18"/>
<text xml:space="preserve" text-anchor="middle" x="217" y="-1626.77" font-family="Times,serif" font-size="14.00">2</text>
</g>
<!-- 1&#45;&gt;2 -->
<g id="edge3" class="edge">
<title>1&#45;&gt;2</title>
<path fill="none" stroke="black" d="M270.72,-1707.9C260.73,-1694.02 245.41,-1672.71 233.68,-1656.39"/>
<polygon fill="black" stroke="black" points="236.82,-1654.77 228.14,-1648.69 231.14,-1658.85 236.82,-1654.77"/>
<text xml:space="preserve" text-anchor="middle" x="255.83" y="-1672.27" font-family="Times,serif" font-size="14.00">ε</text>
</g>
<!-- 26 -->
<g id="node28" class="node">
<title>26</title>
<ellipse fill="none" stroke="black" cx="281" cy="-1632.2" rx="19.63" ry="19.63"/>
<text xml:space="preserve" text-anchor="middle" x="281" y="-1626.77" font-family="Times,serif" font-size="14.00">26</text>
</g>
<!-- 1&#45;&gt;26 -->
<g id="edge33" class="edge">
<title>1&#45;&gt;26</title>
<path fill="none" stroke="black" d="M281,-1705.04C281,-1693.32 281,-1677.47 281,-1663.63"/>
<polygon fill="black" stroke="black" points="284.5,-1663.67 281,-1653.67 277.5,-1663.67 284.5,-1663.67"/>
<text xml:space="preserve" text-anchor="middle" x="284" y="-1672.27" font-family="Times,serif" font-size="14.00">ε</text>
</g>
<!-- 3 -->
<g id="node5" class="node">
<title>3</title>
<ellipse fill="none" stroke="black" cx="165" cy="-1541.19" rx="18" ry="18"/>
<text xml:space="preserve" text-anchor="middle" x="165" y="-1535.77" font-family="Times,serif" font-size="14.00">3</text>
</g>
<!-- 2&#45;&gt;3 -->
<g id="edge4" class="edge">
<title>2&#45;&gt;3</title>
<path fill="none" stroke="black" d="M208.18,-1616.1C200.33,-1602.67 188.72,-1582.78 179.5,-1567.02"/>
<polygon fill="black" stroke="black" points="182.69,-1565.54 174.63,-1558.67 176.65,-1569.07 182.69,-1565.54"/>
<text xml:space="preserve" text-anchor="middle" x="197.11" y="-1581.27" font-family="Times,serif" font-size="14.00">ε</text>
</g>
<!-- 9 -->
<g id="node11" class="node">
<title>9</title>
<ellipse fill="none" stroke="black" cx="217" cy="-572.03" rx="18" ry="18"/>
<text xml:space="preserve" text-anchor="middle" x="217" y="-566.6" font-family="Times,serif" font-size="14.00">9</text>
</g>
<!-- 2&#45;&gt;9 -->
<g id="edge32" class="edge">
<title>2&#45;&gt;9</title>
<path fill="none" stroke="black" d="M217,-1613.8C217,-1595.86 217,-1567.07 217,-1542.19 217,-1542.19 217,-1542.19 217,-658.78 217,-639.73 217,-618.3 217,-601.63"/>
<polygon fill="black" stroke="black" points="220.5,-601.95 217,-591.95 213.5,-601.95 220.5,-601.95"/>
<text xml:space="preserve" text-anchor="middle" x="220" y="-1094.25" font-family="Times,serif" font-size="14.00">ε</text>
</g>
<!-- 4 -->
<g id="node6" class="node">
<title>4</title>
<ellipse fill="none" stroke="black" cx="74" cy="-1450.19" rx="18" ry="18"/>
<text xml:space="preserve" text-anchor="middle" x="74" y="-1444.76" font-family="Times,serif" font-size="14.00">4</text>
</g>
<!-- 3&#45;&gt;4 -->
<g id="edge5" class="edge">
<title>3&#45;&gt;4</title>
<path fill="none" stroke="black" d="M152.35,-1527.82C137.41,-1513.2 112.35,-1488.69 94.6,-1471.33"/>
<polygon fill="black" stroke="black" points="97.22,-1469.01 87.63,-1464.52 92.33,-1474.01 97.22,-1469.01"/>
<text xml:space="preserve" text-anchor="middle" x="127.95" y="-1490.26" font-family="Times,serif" font-size="14.00">ε</text>
</g>
<!-- 22 -->
<g id="node24" class="node">
<title>22</title>
<ellipse fill="none" stroke="black" cx="131" cy="-1450.19" rx="19.63" ry="19.63"/>
<text xml:space="preserve" text-anchor="middle" x="131" y="-1444.76" font-family="Times,serif" font-size="14.00">22</text>
</g>
<!-- 3&#45;&gt;22 -->
<g id="edge27" class="edge">
<title>3&#45;&gt;22</title>
<path fill="none" stroke="black" d="M158.76,-1523.87C154.03,-1511.47 147.4,-1494.12 141.81,-1479.48"/>
<polygon fill="black" stroke="black" points="145.16,-1478.44 138.32,-1470.35 138.62,-1480.94 145.16,-1478.44"/>
<text xml:space="preserve" text-anchor="middle" x="153.04" y="-1490.26" font-family="Times,serif" font-size="14.00">ε</text>
</g>
<!-- 5 -->
<g id="node7" class="node">
<title>5</title>
<ellipse fill="none" stroke="black" cx="18" cy="-1359.18" rx="18" ry="18"/>
<text xml:space="preserve" text-anchor="middle" x="18" y="-1353.76" font-family="Times,serif" font-size="14.00">5</text>
</g>
<!-- 4&#45;&gt;5 -->
<g id="edge6" class="edge">
<title>4&#45;&gt;5</title>
<path fill="none" stroke="black" d="M64.75,-1434.49C56.16,-1420.83 43.21,-1400.25 33.11,-1384.2"/>
<polygon fill="black" stroke="black" points="36.35,-1382.78 28.07,-1376.18 30.43,-1386.51 36.35,-1382.78"/>
<text xml:space="preserve" text-anchor="middle" x="52.35" y="-1399.26" font-family="Times,serif" font-size="14.00">ε</text>
</g>
<!-- 16 -->
<g id="node18" class="node">
<title>16</title>
<ellipse fill="none" stroke="black" cx="74" cy="-1359.18" rx="19.63" ry="19.63"/>
<text xml:space="preserve" text-anchor="middle" x="74" y="-1353.76" font-family="Times,serif" font-size="14.00">16</text>
</g>
<!-- 4&#45;&gt;16 -->
<g id="edge20" class="edge">
<title>4&#45;&gt;16</title>
<path fill="none" stroke="black" d="M74,-1432.03C74,-1420.31 74,-1404.45 74,-1390.62"/>
<polygon fill="black" stroke="black" points="77.5,-1390.65 74,-1380.65 70.5,-1390.65 77.5,-1390.65"/>
<text xml:space="preserve" text-anchor="middle" x="77" y="-1399.26" font-family="Times,serif" font-size="14.00">ε</text>
</g>
<!-- 6 -->
<g id="node8" class="node">
<title>6</title>
<ellipse fill="none" stroke="black" cx="24" cy="-1212.55" rx="18" ry="18"/>
<text xml:space="preserve" text-anchor="middle" x="24" y="-1207.13" font-family="Times,serif" font-size="14.00">6</text>
</g>
<!-- 5&#45;&gt;6 -->
<g id="edge7" class="edge">
<title>5&#45;&gt;6</title>
<path fill="none" stroke="black" d="M18.72,-1340.74C19.74,-1316.17 21.61,-1271.12 22.83,-1241.76"/>
<polygon fill="black" stroke="black" points="26.31,-1242.26 23.23,-1232.12 19.32,-1241.97 26.31,-1242.26"/>
<text xml:space="preserve" text-anchor="middle" x="23.86" y="-1308.26" font-family="Times,serif" font-size="14.00">k</text>
</g>
<!-- 7 -->
<g id="node9" class="node">
<title>7</title>
<ellipse fill="none" stroke="black" cx="74" cy="-747.53" rx="18" ry="18"/>
<text xml:space="preserve" text-anchor="middle" x="74" y="-742.1" font-family="Times,serif" font-size="14.00">7</text>
</g>
<!-- 6&#45;&gt;7 -->
<g id="edge8" class="edge">
<title>6&#45;&gt;7</title>
<path fill="none" stroke="black" d="M24.25,-1194.27C24.55,-1172.45 25,-1133.78 25,-1100.67 25,-1100.67 25,-1100.67 25,-835.9 25,-810.66 40.75,-785.96 54.39,-769.3"/>
<polygon fill="black" stroke="black" points="56.75,-771.91 60.65,-762.06 51.46,-767.33 56.75,-771.91"/>
<text xml:space="preserve" text-anchor="middle" x="28" y="-979.74" font-family="Times,serif" font-size="14.00">ε</text>
</g>
<!-- 8 -->
<g id="node10" class="node">
<title>8</title>
<ellipse fill="none" stroke="black" cx="156" cy="-659.78" rx="18" ry="18"/>
<text xml:space="preserve" text-anchor="middle" x="156" y="-654.35" font-family="Times,serif" font-size="14.00">8</text>
</g>
<!-- 7&#45;&gt;8 -->
<g id="edge9" class="edge">
<title>7&#45;&gt;8</title>
<path fill="none" stroke="black" d="M84.49,-732.66C92.66,-722.16 104.52,-707.58 116,-695.78 121.53,-690.09 127.86,-684.27 133.83,-679.06"/>
<polygon fill="black" stroke="black" points="135.7,-682.07 141.03,-672.91 131.15,-676.74 135.7,-682.07"/>
<text xml:space="preserve" text-anchor="middle" x="119" y="-698.23" font-family="Times,serif" font-size="14.00">ε</text>
</g>
<!-- 8&#45;&gt;3 -->
<g id="edge10" class="edge">
<title>8&#45;&gt;3</title>
<path fill="none" stroke="black" d="M163.03,-676.87C169.79,-693.85 179,-721.56 179,-746.53 179,-1451.19 179,-1451.19 179,-1451.19 179,-1471.78 175.3,-1494.72 171.7,-1512.16"/>
<polygon fill="black" stroke="black" points="168.32,-1511.26 169.6,-1521.78 175.16,-1512.75 168.32,-1511.26"/>
<text xml:space="preserve" text-anchor="middle" x="182" y="-1094.25" font-family="Times,serif" font-size="14.00">ε</text>
</g>
<!-- 8&#45;&gt;9 -->
<g id="edge11" class="edge">
<title>8&#45;&gt;9</title>
<path fill="none" stroke="black" d="M166.07,-644.62C175.43,-631.46 189.54,-611.62 200.54,-596.17"/>
<polygon fill="black" stroke="black" points="203.09,-598.62 206.03,-588.44 197.39,-594.56 203.09,-598.62"/>
<text xml:space="preserve" text-anchor="middle" x="194.96" y="-610.48" font-family="Times,serif" font-size="14.00">ε</text>
</g>
<!-- 10 -->
<g id="node12" class="node">
<title>10</title>
<ellipse fill="none" stroke="black" cx="217" cy="-482.65" rx="19.63" ry="19.63"/>
<text xml:space="preserve" text-anchor="middle" x="217" y="-477.22" font-family="Times,serif" font-size="14.00">10</text>
</g>
<!-- 9&#45;&gt;10 -->
<g id="edge12" class="edge">
<title>9&#45;&gt;10</title>
<path fill="none" stroke="black" d="M217,-553.76C217,-542.49 217,-527.46 217,-514.21"/>
<polygon fill="black" stroke="black" points="220.5,-514.21 217,-504.21 213.5,-514.21 220.5,-514.21"/>
<text xml:space="preserve" text-anchor="middle" x="220" y="-522.73" font-family="Times,serif" font-size="14.00">ε</text>
</g>
<!-- 11 -->
<g id="node13" class="node">
<title>11</title>
<ellipse fill="none" stroke="black" cx="217" cy="-391.64" rx="19.63" ry="19.63"/>
<text xml:space="preserve" text-anchor="middle" x="217" y="-386.22" font-family="Times,serif" font-size="14.00">11</text>
</g>
<!-- 10&#45;&gt;11 -->
<g id="edge13" class="edge">
<title>10&#45;&gt;11</title>
<path fill="none" stroke="black" d="M217,-462.77C217,-451.21 217,-436.14 217,-422.94"/>
<polygon fill="black" stroke="black" points="220.5,-423.01 217,-413.01 213.5,-423.01 220.5,-423.01"/>
<text xml:space="preserve" text-anchor="middle" x="220" y="-431.72" font-family="Times,serif" font-size="14.00">ε</text>
</g>
<!-- 13 -->
<g id="node15" class="node">
<title>13</title>
<ellipse fill="none" stroke="black" cx="265" cy="-209.64" rx="19.63" ry="19.63"/>
<text xml:space="preserve" text-anchor="middle" x="265" y="-204.21" font-family="Times,serif" font-size="14.00">13</text>
</g>
<!-- 10&#45;&gt;13 -->
<g id="edge19" class="edge">
<title>10&#45;&gt;13</title>
<path fill="none" stroke="black" d="M225.62,-464.78C232.34,-450.81 241.3,-430.26 246,-411.27 260.63,-352.18 264.15,-280.72 264.9,-241.01"/>
<polygon fill="black" stroke="black" points="268.4,-241.32 265.04,-231.27 261.4,-241.22 268.4,-241.32"/>
<text xml:space="preserve" text-anchor="middle" x="261.43" y="-340.72" font-family="Times,serif" font-size="14.00">ε</text>
</g>
<!-- 12 -->
<g id="node14" class="node">
<title>12</title>
<ellipse fill="none" stroke="black" cx="217" cy="-300.64" rx="19.63" ry="19.63"/>
<text xml:space="preserve" text-anchor="middle" x="217" y="-295.22" font-family="Times,serif" font-size="14.00">12</text>
</g>
<!-- 11&#45;&gt;12 -->
<g id="edge14" class="edge">
<title>11&#45;&gt;12</title>
<path fill="none" stroke="black" d="M207.13,-374.35C202.11,-364.12 197.57,-350.58 200.25,-338.27 200.95,-335.06 201.95,-331.81 203.13,-328.62"/>
<polygon fill="black" stroke="black" points="206.25,-330.22 206.98,-319.65 199.82,-327.45 206.25,-330.22"/>
<text xml:space="preserve" text-anchor="middle" x="203.62" y="-340.72" font-family="Times,serif" font-size="14.00">h</text>
</g>
<!-- 12&#45;&gt;11 -->
<g id="edge15" class="edge">
<title>12&#45;&gt;11</title>
<path fill="none" stroke="black" d="M217,-320.49C217,-332.05 217,-347.11 217,-360.32"/>
<polygon fill="black" stroke="black" points="213.5,-360.26 217,-370.26 220.5,-360.26 213.5,-360.26"/>
<text xml:space="preserve" text-anchor="middle" x="220" y="-340.72" font-family="Times,serif" font-size="14.00">ε</text>
</g>
<!-- 12&#45;&gt;13 -->
<g id="edge16" class="edge">
<title>12&#45;&gt;13</title>
<path fill="none" stroke="black" d="M225.79,-283.11C231.29,-272.79 238.53,-259.24 245,-247.26 246.76,-244.01 248.61,-240.6 250.44,-237.23"/>
<polygon fill="black" stroke="black" points="253.37,-239.18 255.08,-228.72 247.22,-235.83 253.37,-239.18"/>
<text xml:space="preserve" text-anchor="middle" x="248" y="-249.71" font-family="Times,serif" font-size="14.00">ε</text>
</g>
<!-- 14 -->
<g id="node16" class="node">
<title>14</title>
<ellipse fill="none" stroke="black" cx="313" cy="-118.63" rx="19.63" ry="19.63"/>
<text xml:space="preserve" text-anchor="middle" x="313" y="-113.21" font-family="Times,serif" font-size="14.00">14</text>
</g>
<!-- 13&#45;&gt;14 -->
<g id="edge17" class="edge">
<title>13&#45;&gt;14</title>
<path fill="none" stroke="black" d="M273.79,-192.1C279.29,-181.78 286.53,-168.23 293,-156.26 294.76,-153.01 296.61,-149.6 298.44,-146.22"/>
<polygon fill="black" stroke="black" points="301.37,-148.17 303.08,-137.72 295.22,-144.82 301.37,-148.17"/>
<text xml:space="preserve" text-anchor="middle" x="296" y="-158.71" font-family="Times,serif" font-size="14.00">ε</text>
</g>
<!-- 15 -->
<g id="node17" class="node">
<title>15</title>
<ellipse fill="none" stroke="black" cx="337" cy="-23.63" rx="19.63" ry="19.63"/>
<ellipse fill="none" stroke="black" cx="337" cy="-23.63" rx="23.63" ry="23.63"/>
<text xml:space="preserve" text-anchor="middle" x="337" y="-18.2" font-family="Times,serif" font-size="14.00">15</text>
</g>
<!-- 14&#45;&gt;15 -->
<g id="edge18" class="edge">
<title>14&#45;&gt;15</title>
<path fill="none" stroke="black" d="M317.74,-99.26C320.77,-87.51 324.79,-71.93 328.38,-58.04"/>
<polygon fill="black" stroke="black" points="331.76,-58.92 330.87,-48.37 324.99,-57.17 331.76,-58.92"/>
<text xml:space="preserve" text-anchor="middle" x="329.44" y="-67.7" font-family="Times,serif" font-size="14.00">ε</text>
</g>
<!-- 17 -->
<g id="node19" class="node">
<title>17</title>
<ellipse fill="none" stroke="black" cx="74" cy="-1268.18" rx="19.63" ry="19.63"/>
<text xml:space="preserve" text-anchor="middle" x="74" y="-1262.75" font-family="Times,serif" font-size="14.00">17</text>
</g>
<!-- 16&#45;&gt;17 -->
<g id="edge21" class="edge">
<title>16&#45;&gt;17</title>
<path fill="none" stroke="black" d="M74,-1339.31C74,-1327.74 74,-1312.68 74,-1299.47"/>
<polygon fill="black" stroke="black" points="77.5,-1299.54 74,-1289.54 70.5,-1299.54 77.5,-1299.54"/>
<text xml:space="preserve" text-anchor="middle" x="77.75" y="-1308.26" font-family="Times,serif" font-size="14.00">k</text>
</g>
<!-- 18 -->
<g id="node20" class="node">
<title>18</title>
<ellipse fill="none" stroke="black" cx="74" cy="-1156.92" rx="19.63" ry="19.63"/>
<text xml:space="preserve" text-anchor="middle" x="74" y="-1151.5" font-family="Times,serif" font-size="14.00">18</text>
</g>
<!-- 17&#45;&gt;18 -->
<g id="edge22" class="edge">
<title>17&#45;&gt;18</title>
<path fill="none" stroke="black" d="M74,-1248.15C74,-1231.62 74,-1207.39 74,-1188.2"/>
<polygon fill="black" stroke="black" points="77.5,-1188.25 74,-1178.25 70.5,-1188.25 77.5,-1188.25"/>
<text xml:space="preserve" text-anchor="middle" x="77" y="-1207.13" font-family="Times,serif" font-size="14.00">ε</text>
</g>
<!-- 19 -->
<g id="node21" class="node">
<title>19</title>
<ellipse fill="none" stroke="black" cx="74" cy="-1042.42" rx="19.63" ry="19.63"/>
<text xml:space="preserve" text-anchor="middle" x="74" y="-1036.99" font-family="Times,serif" font-size="14.00">19</text>
</g>
<!-- 18&#45;&gt;19 -->
<g id="edge23" class="edge">
<title>18&#45;&gt;19</title>
<path fill="none" stroke="black" d="M74,-1136.84C74,-1119.52 74,-1093.7 74,-1073.58"/>
<polygon fill="black" stroke="black" points="77.5,-1073.73 74,-1063.73 70.5,-1073.73 77.5,-1073.73"/>
<text xml:space="preserve" text-anchor="middle" x="77.75" y="-1094.25" font-family="Times,serif" font-size="14.00">k</text>
</g>
<!-- 20 -->
<g id="node22" class="node">
<title>20</title>
<ellipse fill="none" stroke="black" cx="74" cy="-927.91" rx="19.63" ry="19.63"/>
<text xml:space="preserve" text-anchor="middle" x="74" y="-922.48" font-family="Times,serif" font-size="14.00">20</text>
</g>
<!-- 19&#45;&gt;20 -->
<g id="edge24" class="edge">
<title>19&#45;&gt;20</title>
<path fill="none" stroke="black" d="M74,-1022.33C74,-1005.01 74,-979.19 74,-959.08"/>
<polygon fill="black" stroke="black" points="77.5,-959.22 74,-949.22 70.5,-959.22 77.5,-959.22"/>
<text xml:space="preserve" text-anchor="middle" x="77" y="-979.74" font-family="Times,serif" font-size="14.00">ε</text>
</g>
<!-- 21 -->
<g id="node23" class="node">
<title>21</title>
<ellipse fill="none" stroke="black" cx="74" cy="-836.9" rx="19.63" ry="19.63"/>
<text xml:space="preserve" text-anchor="middle" x="74" y="-831.48" font-family="Times,serif" font-size="14.00">21</text>
</g>
<!-- 20&#45;&gt;21 -->
<g id="edge25" class="edge">
<title>20&#45;&gt;21</title>
<path fill="none" stroke="black" d="M74,-908.03C74,-896.47 74,-881.4 74,-868.2"/>
<polygon fill="black" stroke="black" points="77.5,-868.26 74,-858.26 70.5,-868.27 77.5,-868.26"/>
<text xml:space="preserve" text-anchor="middle" x="77.38" y="-876.98" font-family="Times,serif" font-size="14.00">g</text>
</g>
<!-- 21&#45;&gt;7 -->
<g id="edge26" class="edge">
<title>21&#45;&gt;7</title>
<path fill="none" stroke="black" d="M74,-816.94C74,-805.34 74,-790.26 74,-777.22"/>
<polygon fill="black" stroke="black" points="77.5,-777.48 74,-767.48 70.5,-777.48 77.5,-777.48"/>
<text xml:space="preserve" text-anchor="middle" x="77" y="-785.98" font-family="Times,serif" font-size="14.00">ε</text>
</g>
<!-- 23 -->
<g id="node25" class="node">
<title>23</title>
<ellipse fill="none" stroke="black" cx="131" cy="-1359.18" rx="19.63" ry="19.63"/>
<text xml:space="preserve" text-anchor="middle" x="131" y="-1353.76" font-family="Times,serif" font-size="14.00">23</text>
</g>
<!-- 22&#45;&gt;23 -->
<g id="edge28" class="edge">
<title>22&#45;&gt;23</title>
<path fill="none" stroke="black" d="M131,-1430.31C131,-1418.75 131,-1403.68 131,-1390.48"/>
<polygon fill="black" stroke="black" points="134.5,-1390.55 131,-1380.55 127.5,-1390.55 134.5,-1390.55"/>
<text xml:space="preserve" text-anchor="middle" x="134.75" y="-1399.26" font-family="Times,serif" font-size="14.00">k</text>
</g>
<!-- 24 -->
<g id="node26" class="node">
<title>24</title>
<ellipse fill="none" stroke="black" cx="131" cy="-1268.18" rx="19.63" ry="19.63"/>
<text xml:space="preserve" text-anchor="middle" x="131" y="-1262.75" font-family="Times,serif" font-size="14.00">24</text>
</g>
<!-- 23&#45;&gt;24 -->
<g id="edge29" class="edge">
<title>23&#45;&gt;24</title>
<path fill="none" stroke="black" d="M131,-1339.31C131,-1327.74 131,-1312.68 131,-1299.47"/>
<polygon fill="black" stroke="black" points="134.5,-1299.54 131,-1289.54 127.5,-1299.54 134.5,-1299.54"/>
<text xml:space="preserve" text-anchor="middle" x="134" y="-1308.26" font-family="Times,serif" font-size="14.00">ε</text>
</g>
<!-- 25 -->
<g id="node27" class="node">
<title>25</title>
<ellipse fill="none" stroke="black" cx="135" cy="-985.16" rx="19.63" ry="19.63"/>
<text xml:space="preserve" text-anchor="middle" x="135" y="-979.74" font-family="Times,serif" font-size="14.00">25</text>
</g>
<!-- 24&#45;&gt;25 -->
<g id="edge30" class="edge">
<title>24&#45;&gt;25</title>
<path fill="none" stroke="black" d="M131.27,-1248.3C131.95,-1200.51 133.74,-1074.39 134.57,-1016.27"/>
<polygon fill="black" stroke="black" points="138.07,-1016.52 134.71,-1006.47 131.07,-1016.42 138.07,-1016.52"/>
<text xml:space="preserve" text-anchor="middle" x="136.59" y="-1151.5" font-family="Times,serif" font-size="14.00">k</text>
</g>
<!-- 25&#45;&gt;8 -->
<g id="edge31" class="edge">
<title>25&#45;&gt;8</title>
<path fill="none" stroke="black" d="M135.3,-965.22C135.59,-944.97 136,-911.92 136,-883.41 136,-883.41 136,-883.41 136,-746.53 136,-726.4 141.29,-704.31 146.42,-687.58"/>
<polygon fill="black" stroke="black" points="149.65,-688.98 149.42,-678.39 142.99,-686.81 149.65,-688.98"/>
<text xml:space="preserve" text-anchor="middle" x="139" y="-831.48" font-family="Times,serif" font-size="14.00">ε</text>
</g>
<!-- 27 -->
<g id="node29" class="node">
<title>27</title>
<ellipse fill="none" stroke="black" cx="281" cy="-1541.19" rx="19.63" ry="19.63"/>
<text xml:space="preserve" text-anchor="middle" x="281" y="-1535.77" font-family="Times,serif" font-size="14.00">27</text>
</g>
<!-- 26&#45;&gt;27 -->
<g id="edge34" class="edge">
<title>26&#45;&gt;27</title>
<path fill="none" stroke="black" d="M281,-1612.32C281,-1600.76 281,-1585.69 281,-1572.49"/>
<polygon fill="black" stroke="black" points="284.5,-1572.55 281,-1562.55 277.5,-1572.55 284.5,-1572.55"/>
<text xml:space="preserve" text-anchor="middle" x="284.75" y="-1581.27" font-family="Times,serif" font-size="14.00">k</text>
</g>
<!-- 28 -->
<g id="node30" class="node">
<title>28</title>
<ellipse fill="none" stroke="black" cx="281" cy="-1450.19" rx="19.63" ry="19.63"/>
<text xml:space="preserve" text-anchor="middle" x="281" y="-1444.76" font-family="Times,serif" font-size="14.00">28</text>
</g>
<!-- 27&#45;&gt;28 -->
<g id="edge35" class="edge">
<title>27&#45;&gt;28</title>
<path fill="none" stroke="black" d="M281,-1521.32C281,-1509.75 281,-1494.69 281,-1481.48"/>
<polygon fill="black" stroke="black" points="284.5,-1481.55 281,-1471.55 277.5,-1481.55 284.5,-1481.55"/>
<text xml:space="preserve" text-anchor="middle" x="284" y="-1490.26" font-family="Times,serif" font-size="14.00">ε</text>
</g>
<!-- 29 -->
<g id="node31" class="node">
<title>29</title>
<ellipse fill="none" stroke="black" cx="265" cy="-1359.18" rx="19.63" ry="19.63"/>
<text xml:space="preserve" text-anchor="middle" x="265" y="-1353.76" font-family="Times,serif" font-size="14.00">29</text>
</g>
<!-- 28&#45;&gt;29 -->
<g id="edge36" class="edge">
<title>28&#45;&gt;29</title>
<path fill="none" stroke="black" d="M277.68,-1430.75C275.58,-1419.01 272.79,-1403.54 270.37,-1390.08"/>
<polygon fill="black" stroke="black" points="273.85,-1389.62 268.63,-1380.4 266.96,-1390.86 273.85,-1389.62"/>
<text xml:space="preserve" text-anchor="middle" x="276.96" y="-1399.26" font-family="Times,serif" font-size="14.00">ε</text>
</g>
<!-- 31 -->
<g id="node33" class="node">
<title>31</title>
<ellipse fill="none" stroke="black" cx="313" cy="-1156.92" rx="19.63" ry="19.63"/>
<text xml:space="preserve" text-anchor="middle" x="313" y="-1151.5" font-family="Times,serif" font-size="14.00">31</text>
</g>
<!-- 28&#45;&gt;31 -->
<g id="edge41" class="edge">
<title>28&#45;&gt;31</title>
<path fill="none" stroke="black" d="M284.91,-1430.74C287.79,-1416.59 291.61,-1396.54 294,-1378.81 303.16,-1310.97 308.76,-1230.77 311.33,-1188.14"/>
<polygon fill="black" stroke="black" points="314.81,-1188.6 311.9,-1178.41 307.82,-1188.19 314.81,-1188.6"/>
<text xml:space="preserve" text-anchor="middle" x="305.2" y="-1308.26" font-family="Times,serif" font-size="14.00">ε</text>
</g>
<!-- 30 -->
<g id="node32" class="node">
<title>30</title>
<ellipse fill="none" stroke="black" cx="265" cy="-1268.18" rx="19.63" ry="19.63"/>
<text xml:space="preserve" text-anchor="middle" x="265" y="-1262.75" font-family="Times,serif" font-size="14.00">30</text>
</g>
<!-- 29&#45;&gt;30 -->
<g id="edge37" class="edge">
<title>29&#45;&gt;30</title>
<path fill="none" stroke="black" d="M259.19,-1340.11C257.58,-1334.26 256.05,-1327.69 255.25,-1321.56 254.26,-1313.97 254.92,-1305.82 256.28,-1298.27"/>
<polygon fill="black" stroke="black" points="259.69,-1299.05 258.5,-1288.52 252.87,-1297.49 259.69,-1299.05"/>
<text xml:space="preserve" text-anchor="middle" x="258.62" y="-1308.26" font-family="Times,serif" font-size="14.00">h</text>
</g>
<!-- 30&#45;&gt;29 -->
<g id="edge38" class="edge">
<title>30&#45;&gt;29</title>
<path fill="none" stroke="black" d="M265,-1288.03C265,-1299.59 265,-1314.65 265,-1327.86"/>
<polygon fill="black" stroke="black" points="261.5,-1327.79 265,-1337.79 268.5,-1327.79 261.5,-1327.79"/>
<text xml:space="preserve" text-anchor="middle" x="268" y="-1308.26" font-family="Times,serif" font-size="14.00">ε</text>
</g>
<!-- 30&#45;&gt;31 -->
<g id="edge39" class="edge">
<title>30&#45;&gt;31</title>
<path fill="none" stroke="black" d="M271.15,-1249.3C276.44,-1234.43 284.54,-1212.82 293,-1194.55 294.55,-1191.2 296.28,-1187.73 298.05,-1184.32"/>
<polygon fill="black" stroke="black" points="300.99,-1186.26 302.65,-1175.79 294.82,-1182.94 300.99,-1186.26"/>
<text xml:space="preserve" text-anchor="middle" x="296" y="-1207.13" font-family="Times,serif" font-size="14.00">ε</text>
</g>
<!-- 31&#45;&gt;14 -->
<g id="edge40" class="edge">
<title>31&#45;&gt;14</title>
<path fill="none" stroke="black" d="M313,-1136.81C313,-1114.43 313,-1076.23 313,-1043.42 313,-1043.42 313,-1043.42 313,-208.64 313,-189.14 313,-167.25 313,-150.06"/>
<polygon fill="black" stroke="black" points="316.5,-150.24 313,-140.24 309.5,-150.24 316.5,-150.24"/>
<text xml:space="preserve" text-anchor="middle" x="316" y="-610.48" font-family="Times,serif" font-size="14.00">ε</text>
</g>
<!-- 33 -->
<g id="node35" class="node">
<title>33</title>
<ellipse fill="none" stroke="black" cx="338" cy="-1632.2" rx="19.63" ry="19.63"/>
<text xml:space="preserve" text-anchor="middle" x="338" y="-1626.77" font-family="Times,serif" font-size="14.00">33</text>
</g>
<!-- 32&#45;&gt;33 -->
<g id="edge43" class="edge">
<title>32&#45;&gt;33</title>
<path fill="none" stroke="black" d="M337.21,-1703.33C337.34,-1691.76 337.51,-1676.69 337.66,-1663.49"/>
<polygon fill="black" stroke="black" points="341.16,-1663.6 337.77,-1653.56 334.16,-1663.52 341.16,-1663.6"/>
<text xml:space="preserve" text-anchor="middle" x="341.31" y="-1672.27" font-family="Times,serif" font-size="14.00">k</text>
</g>
<!-- 34 -->
<g id="node36" class="node">
<title>34</title>
<ellipse fill="none" stroke="black" cx="342" cy="-1541.19" rx="19.63" ry="19.63"/>
<text xml:space="preserve" text-anchor="middle" x="342" y="-1535.77" font-family="Times,serif" font-size="14.00">34</text>
</g>
<!-- 33&#45;&gt;34 -->
<g id="edge44" class="edge">
<title>33&#45;&gt;34</title>
<path fill="none" stroke="black" d="M338.85,-1612.32C339.37,-1600.76 340.05,-1585.69 340.64,-1572.49"/>
<polygon fill="black" stroke="black" points="344.13,-1572.7 341.08,-1562.55 337.14,-1572.39 344.13,-1572.7"/>
<text xml:space="preserve" text-anchor="middle" x="343.24" y="-1581.27" font-family="Times,serif" font-size="14.00">ε</text>
</g>
<!-- 35 -->
<g id="node37" class="node">
<title>35</title>
<ellipse fill="none" stroke="black" cx="348" cy="-1450.19" rx="19.63" ry="19.63"/>
<text xml:space="preserve" text-anchor="middle" x="348" y="-1444.76" font-family="Times,serif" font-size="14.00">35</text>
</g>
<!-- 34&#45;&gt;35 -->
<g id="edge45" class="edge">
<title>34&#45;&gt;35</title>
<path fill="none" stroke="black" d="M343.27,-1521.32C344.05,-1509.75 345.07,-1494.69 345.96,-1481.48"/>
<polygon fill="black" stroke="black" points="349.45,-1481.76 346.63,-1471.55 342.46,-1481.29 349.45,-1481.76"/>
<text xml:space="preserve" text-anchor="middle" x="349.11" y="-1490.26" font-family="Times,serif" font-size="14.00">k</text>
</g>
<!-- 36 -->
<g id="node38" class="node">
<title>36</title>
<ellipse fill="none" stroke="black" cx="361" cy="-1359.18" rx="19.63" ry="19.63"/>
<text xml:space="preserve" text-anchor="middle" x="361" y="-1353.76" font-family="Times,serif" font-size="14.00">36</text>
</g>
<!-- 35&#45;&gt;36 -->
<g id="edge46" class="edge">
<title>35&#45;&gt;36</title>
<path fill="none" stroke="black" d="M350.76,-1430.31C352.46,-1418.63 354.69,-1403.37 356.63,-1390.08"/>
<polygon fill="black" stroke="black" points="360.05,-1390.93 358.03,-1380.53 353.12,-1389.92 360.05,-1390.93"/>
<text xml:space="preserve" text-anchor="middle" x="358.28" y="-1399.26" font-family="Times,serif" font-size="14.00">ε</text>
</g>
<!-- 37 -->
<g id="node39" class="node">
<title>37</title>
<ellipse fill="none" stroke="black" cx="361" cy="-1099.67" rx="19.63" ry="19.63"/>
<text xml:space="preserve" text-anchor="middle" x="361" y="-1094.25" font-family="Times,serif" font-size="14.00">37</text>
</g>
<!-- 36&#45;&gt;37 -->
<g id="edge47" class="edge">
<title>36&#45;&gt;37</title>
<path fill="none" stroke="black" d="M361,-1339.25C361,-1295.07 361,-1184.86 361,-1131.11"/>
<polygon fill="black" stroke="black" points="364.5,-1131.15 361,-1121.15 357.5,-1131.15 364.5,-1131.15"/>
<text xml:space="preserve" text-anchor="middle" x="364.38" y="-1262.75" font-family="Times,serif" font-size="14.00">h</text>
</g>
<!-- 37&#45;&gt;15 -->
<g id="edge48" class="edge">
<title>37&#45;&gt;15</title>
<path fill="none" stroke="black" d="M361,-1079.56C361,-1057.18 361,-1018.98 361,-986.16 361,-986.16 361,-986.16 361,-117.63 361,-96.98 355.38,-74.54 349.58,-56.87"/>
<polygon fill="black" stroke="black" points="352.89,-55.74 346.3,-47.45 346.28,-58.05 352.89,-55.74"/>
<text xml:space="preserve" text-anchor="middle" x="364" y="-566.6" font-family="Times,serif" font-size="14.00">ε</text>
</g>
</g>
</svg>
